<svg width="276" height="179" viewBox="0 0 276 179" fill="none" xmlns="http://www.w3.org/2000/svg">
<rect width="276" height="178.8" fill="#EBFFFB"/>
<path d="M62 60.7V146.7H185.9V61.9L154.7 103.7L124.3 61.1L136.9 42.3L124.5 23L111.7 42.7L124.3 61.2L93.3 103.3L62 60.7Z" fill="#A1E5D8"/>
<path d="M183.599 96.9003C198.732 96.9003 210.999 84.6329 210.999 69.5003C210.999 54.3677 198.732 42.1003 183.599 42.1003C168.467 42.1003 156.199 54.3677 156.199 69.5003C156.199 84.6329 168.467 96.9003 183.599 96.9003Z" fill="#FDFFFF" stroke="white" stroke-miterlimit="10" stroke-linecap="round" stroke-linejoin="round"/>
<path fill-rule="evenodd" clip-rule="evenodd" d="M178.599 73.4L196.499 55.5L201.599 60.6L178.699 83.5L165.699 70.5L170.799 65.4L178.599 73.4Z" fill="#62D3A2"/>
<path d="M124.301 61.2002L93.3008 103.3L125.201 146.3L154.701 103.7L124.301 61.2002Z" fill="#62D3A2"/>
<path d="M209.221 154.014L171.951 103.214L236.209 106.614L211.041 123.714L209.221 154.014Z" fill="#62D3A2"/>
</svg>
