<svg width="276" height="164" viewBox="0 0 276 164" fill="none" xmlns="http://www.w3.org/2000/svg">
<rect width="276" height="163.381" rx="12" fill="#FFEBF6"/>
<path d="M76.9707 135.809V21.2137C76.9707 20.6069 77.4707 20 78.1707 20H180.771C181.371 20 181.971 20.5057 181.971 21.2137V124.885C181.971 131.561 176.571 137.022 169.971 137.022H78.1707C77.4707 137.022 76.9707 136.517 76.9707 135.809Z" fill="#EDB2D3"/>
<path d="M172.871 137.225H166.771C160.471 137.225 155.371 131.257 155.371 123.874V108.095H59.8711V126.099C59.8711 132.269 64.1711 137.225 69.4711 137.225H166.871" fill="white"/>
<path d="M170.172 83.8212H126.172C125.272 83.8212 124.672 83.1132 124.672 82.304C124.672 81.3937 125.372 80.7869 126.172 80.7869H170.172C171.072 80.7869 171.672 81.4949 171.672 82.304C171.672 83.1132 170.972 83.8212 170.172 83.8212Z" fill="white"/>
<path d="M149.272 91.7103H126.172C125.272 91.7103 124.672 91.0023 124.672 90.1932C124.672 89.2829 125.372 88.676 126.172 88.676H149.372C150.272 88.676 150.872 89.384 150.872 90.1932C150.872 91.0023 150.172 91.7103 149.272 91.7103Z" fill="white"/>
<path d="M159.972 91.7101H155.572C154.672 91.7101 154.072 91.0021 154.072 90.1929C154.072 89.2826 154.772 88.6758 155.572 88.6758H159.972C160.872 88.6758 161.472 89.3838 161.472 90.1929C161.472 91.0021 160.772 91.7101 159.972 91.7101Z" fill="white"/>
<path d="M100.171 96.059C107.296 96.059 113.071 90.2174 113.071 83.0115C113.071 75.8056 107.296 69.9641 100.171 69.9641C93.047 69.9641 87.2715 75.8056 87.2715 83.0115C87.2715 90.2174 93.047 96.059 100.171 96.059Z" fill="white"/>
<path fill-rule="evenodd" clip-rule="evenodd" d="M100.273 83.1128L113.773 69.4585L117.573 73.3019L100.273 90.7996L90.4727 80.8876L94.2727 77.0442L100.273 83.1128Z" fill="#EDB2D3"/>
<path d="M170.172 48.3199H126.172C125.272 48.3199 124.672 47.6119 124.672 46.8028C124.672 45.8925 125.372 45.2856 126.172 45.2856H170.172C171.072 45.2856 171.672 45.9936 171.672 46.8028C171.672 47.6119 170.972 48.3199 170.172 48.3199Z" fill="white"/>
<path d="M149.272 56.108H126.172C125.272 56.108 124.672 55.4 124.672 54.5909C124.672 53.6806 125.372 53.0737 126.172 53.0737H149.372C150.272 53.0737 150.872 53.7817 150.872 54.5909C150.872 55.4 150.172 56.108 149.272 56.108Z" fill="white"/>
<path d="M159.972 56.108H155.572C154.672 56.108 154.072 55.4 154.072 54.5909C154.072 53.6806 154.772 53.0737 155.572 53.0737H159.972C160.872 53.0737 161.472 53.7817 161.472 54.5909C161.472 55.4 160.772 56.108 159.972 56.108Z" fill="white"/>
<path d="M100.171 61.9745C107.296 61.9745 113.071 56.133 113.071 48.9271C113.071 41.7212 107.296 35.8796 100.171 35.8796C93.047 35.8796 87.2715 41.7212 87.2715 48.9271C87.2715 56.133 93.047 61.9745 100.171 61.9745Z" fill="white"/>
<path fill-rule="evenodd" clip-rule="evenodd" d="M100.273 48.9267L113.773 35.2725L117.573 39.1159L100.273 56.7147L90.4727 46.8027L94.2727 42.9593L100.273 48.9267Z" fill="#EDB2D3"/>
<path d="M210.141 143.381L172.871 92L237.129 95.4389L211.961 112.734L210.141 143.381Z" fill="#E593C4"/>
</svg>
