<svg width="276" height="167" viewBox="0 0 276 167" fill="none" xmlns="http://www.w3.org/2000/svg">
<rect width="276" height="166.087" rx="12" fill="#EBFBFF"/>
<path d="M132.414 119.652C104.936 119.652 82.5879 97.3043 82.5879 69.8261C82.5879 42.3478 104.936 20 132.414 20C159.892 20 182.24 42.3478 182.24 69.8261C182.24 97.3043 159.892 119.652 132.414 119.652Z" fill="white"/>
<path d="M150.154 52.087C150.154 61.9131 142.241 69.8262 132.415 69.8262C122.589 69.8262 114.676 61.9131 114.676 52.087C114.676 42.2609 122.589 34.3479 132.415 34.3479C142.241 34.3479 150.154 42.2609 150.154 52.087Z" fill="#9FD5E6"/>
<path d="M132.414 116.609C145.892 116.609 157.979 110.87 166.588 101.739C161.632 87.6521 148.24 77.5652 132.414 77.5652C116.675 77.5652 103.284 87.6521 98.2402 101.739C106.762 110.87 118.936 116.609 132.414 116.609Z" fill="#9FD5E6"/>
<path d="M100.761 66.4348C100.761 74.4348 94.2395 80.9566 86.2395 80.9566C78.2395 80.9566 71.8047 74.3479 71.8047 66.4348C71.8047 58.5218 78.3264 51.9131 86.3264 51.9131C94.3264 51.9131 100.761 58.4348 100.761 66.4348Z" fill="#9FD5E6"/>
<path d="M86.3261 118.956C97.2826 118.956 107.196 114.261 114.152 106.87C110.065 95.3912 99.1957 87.1304 86.3261 87.1304C73.4565 87.1304 62.5 95.3912 58.5 106.87C65.4565 114.348 75.2826 118.956 86.3261 118.956Z" fill="#9FD5E6"/>
<path d="M193.458 66.4348C193.458 74.4348 186.936 80.9566 178.936 80.9566C170.936 80.9566 164.414 74.4348 164.414 66.4348C164.414 58.4348 170.936 51.9131 178.936 51.9131C186.936 51.9131 193.458 58.4348 193.458 66.4348Z" fill="#9FD5E6"/>
<path d="M178.935 118.956C189.892 118.956 199.805 114.261 206.762 106.87C202.675 95.3912 191.805 87.1304 178.935 87.1304C166.066 87.1304 155.109 95.3912 151.109 106.87C158.066 114.348 167.979 118.956 178.935 118.956Z" fill="#9FD5E6"/>
<path d="M201.508 105H214.624C216.273 105 217.603 105 218.681 105.088C219.79 105.179 220.764 105.37 221.665 105.829C223.097 106.559 224.261 107.723 224.99 109.154C225.45 110.056 225.641 111.03 225.732 112.139C225.82 113.216 225.82 114.546 225.82 116.196V127.283C225.82 128.932 225.82 130.262 225.732 131.339C225.641 132.448 225.45 133.423 224.99 134.324C224.261 135.756 223.097 136.919 221.665 137.649C220.764 138.108 219.79 138.3 218.681 138.39C217.603 138.478 216.273 138.478 214.624 138.478H201.508C199.859 138.478 198.529 138.478 197.452 138.39C196.342 138.3 195.368 138.108 194.467 137.649C193.035 136.919 191.871 135.756 191.142 134.324C190.683 133.423 190.491 132.448 190.4 131.339C190.312 130.262 190.312 128.932 190.313 127.283V116.196C190.312 114.547 190.312 113.216 190.4 112.139C190.491 111.03 190.683 110.056 191.142 109.154C191.871 107.723 193.035 106.559 194.467 105.829C195.368 105.37 196.342 105.179 197.452 105.088C198.529 105 199.859 105 201.508 105Z" fill="#61B7D4"/>
<path d="M227.849 127.23C227.849 127.785 228.076 128.315 228.477 128.698L233.199 133.205C234.813 134.746 237.486 133.602 237.486 131.371V112.106C237.486 109.875 234.813 108.731 233.199 110.272L228.477 114.779C228.076 115.162 227.849 115.693 227.849 116.247V127.23Z" fill="#61B7D4"/>
</svg>
