<svg width="276" height="168" viewBox="0 0 276 168" fill="none" xmlns="http://www.w3.org/2000/svg">
<rect width="276" height="167.51" rx="12" fill="#EBFBFF"/>
<path d="M48.3611 106.335H67.5314C72.1365 106.335 75.8849 109.911 75.8849 114.304V139.541C75.8849 143.934 72.1365 147.51 67.5314 147.51H41.1856C36.5804 147.51 32.832 143.934 32.832 139.541V120.435L48.3611 106.335Z" fill="#9FD5E6"/>
<path d="M32.832 120.332L48.3611 106.335V113.18C48.3611 117.165 45.0411 120.332 40.8643 120.332H32.832Z" fill="white"/>
<path d="M225.82 27.8665H237.922C240.813 27.8665 243.169 30.1142 243.169 32.8729V48.8116C243.169 51.5702 240.813 53.818 237.922 53.818H221.215C218.323 53.818 215.967 51.5702 215.967 48.8116V36.6532L225.82 27.8665Z" fill="#9FD5E6"/>
<path d="M215.967 36.6536L225.82 27.7646V32.0558C225.82 34.508 223.678 36.5514 221.107 36.5514H215.967V36.6536Z" fill="white"/>
<path d="M136.609 20H177.412C187.265 20 195.19 27.5607 195.19 36.9605V90.4983C195.19 99.8981 187.265 107.459 177.412 107.459H121.294C111.441 107.459 103.516 99.8981 103.516 90.4983V49.9362L136.609 20Z" fill="#9FD5E6"/>
<path d="M103.516 49.9359L136.716 20.1018V34.7123C136.716 43.0904 129.54 49.9359 120.758 49.9359H103.516Z" fill="white"/>
<path d="M206.436 138.213L169.166 86.3096L233.424 89.7834L208.256 107.255L206.436 138.213Z" fill="#61B7D4"/>
</svg>
