<svg width="146" height="25" viewBox="0 0 146 25" fill="none" xmlns="http://www.w3.org/2000/svg">
<path d="M41.963 24.4973C40.8022 24.4973 39.9391 24.1414 39.3736 23.4295C38.8081 22.7461 38.5254 21.906 38.5254 20.9094C38.5254 20.2545 38.6444 19.4287 38.8825 18.4321C39.1504 17.4354 39.4927 16.3961 39.9093 15.314C40.326 14.2035 40.8022 13.1641 41.3379 12.196C41.9034 11.2278 42.4987 10.4447 43.1237 9.84673C43.7487 9.22027 44.3588 8.90704 44.9541 8.90704C45.222 8.90704 45.4452 8.99247 45.6237 9.16332C45.8321 9.3057 45.9363 9.5335 45.9363 9.84673C45.9363 10.1884 45.6982 10.7437 45.222 11.5125C44.7755 12.2814 44.2398 13.1641 43.6148 14.1607C42.9898 15.1574 42.4392 16.211 41.963 17.3215C41.5165 18.4036 41.2933 19.4429 41.2933 20.4396C41.2933 21.4647 41.4719 22.1481 41.829 22.4898C42.1862 22.8315 42.7368 23.0024 43.4809 23.0024C44.4928 23.0024 45.5642 22.5183 46.6952 21.5501C47.8559 20.5819 49.0762 18.8877 50.356 16.4673L50.7578 16.8944C49.8947 19.3433 48.6446 21.2226 47.0077 22.5325C45.4005 23.8424 43.7189 24.4973 41.963 24.4973ZM47.3202 4.93474C46.844 4.93474 46.4125 4.82084 46.0255 4.59303C45.6684 4.36523 45.4898 4.00929 45.4898 3.52521C45.4898 2.92723 45.847 2.41467 46.5613 1.98754C47.3053 1.53193 48.0345 1.30413 48.7488 1.30413C49.1952 1.30413 49.5524 1.40379 49.8203 1.60312C50.0881 1.80245 50.2221 2.14416 50.2221 2.62824C50.2221 3.16927 49.9096 3.69606 49.2845 4.20862C48.6893 4.6927 48.0345 4.93474 47.3202 4.93474Z" fill="#007AFF"/>
<path fill-rule="evenodd" clip-rule="evenodd" d="M118.787 3.43978C119.174 3.66758 119.605 3.78148 120.081 3.78148C120.796 3.78148 121.45 3.53944 122.046 3.05536C122.671 2.54281 122.983 2.01601 122.983 1.47498C122.983 0.990901 122.849 0.649197 122.581 0.449869C122.314 0.250542 121.956 0.150879 121.51 0.150879C120.796 0.150879 120.066 0.378681 119.322 0.834286C118.608 1.26142 118.251 1.77397 118.251 2.37195C118.251 2.85603 118.43 3.21198 118.787 3.43978Z" fill="#007AFF"/>
<path d="M33.0378 22.6794C32.0091 22.6794 31.2302 22.4328 30.7011 21.9395C30.2015 21.4462 29.9517 20.8159 29.9517 20.0486C29.9517 19.4732 30.0545 18.8703 30.2603 18.24C30.4954 17.6097 30.7158 16.9657 30.9216 16.308C31.1273 15.623 31.2302 14.9653 31.2302 14.335C31.2302 13.5677 31.0538 13.047 30.7011 12.773C30.3778 12.4715 29.9663 12.3208 29.4667 12.3208C28.5555 12.3208 27.6297 12.6771 26.6891 13.3896C25.7486 14.0747 24.8375 14.9653 23.9557 16.0614C23.0739 17.1302 22.251 18.24 21.4868 19.391C20.7226 20.5419 20.0466 21.5695 19.4587 22.4739C18.9885 22.4739 18.5476 22.3917 18.1361 22.2272C17.6952 22.0902 17.3572 21.871 17.1221 21.5695C17.1221 21.4325 17.2837 21.0078 17.607 20.2953C17.901 19.5828 18.2537 18.7059 18.6651 17.6645C19.0766 16.6232 19.444 15.5544 19.7673 14.4583C20.0907 13.3622 20.2523 12.3619 20.2523 11.4576C20.4287 11.2658 20.7079 11.074 21.09 10.8821C21.4721 10.6903 21.8689 10.5944 22.2804 10.5944C23.0739 10.5944 23.4707 10.9506 23.4707 11.6631C23.4707 12.1016 23.3385 12.8415 23.0739 13.8828C22.8094 14.8968 22.4714 15.9655 22.0599 17.089C22.8535 15.9655 23.7353 14.8557 24.7052 13.7595C25.7045 12.636 26.7626 11.7042 27.8795 10.9643C28.9964 10.2244 30.1133 9.85449 31.2302 9.85449C32.3765 9.85449 33.1995 10.2381 33.6991 11.0054C34.2282 11.7727 34.4927 12.6223 34.4927 13.554C34.4927 14.4035 34.3457 15.1982 34.0518 15.9381C33.7579 16.6506 33.4493 17.3494 33.126 18.0345C32.8321 18.6922 32.6851 19.3636 32.6851 20.0486C32.6851 20.6241 32.8027 21.0352 33.0378 21.2818C33.3023 21.501 33.6256 21.6106 34.0077 21.6106C34.7425 21.6106 35.4773 21.2955 36.2121 20.6652C36.9469 20.0075 37.6523 19.1854 38.3284 18.1989C39.0338 17.2124 39.651 16.2121 40.18 15.1982L40.665 15.7326C40.0478 17.0753 39.3571 18.2674 38.5929 19.3087C37.8287 20.3501 36.991 21.1722 36.0799 21.7751C35.1687 22.378 34.1547 22.6794 33.0378 22.6794Z" fill="#007AFF"/>
<path d="M3.41532 24.8169C2.38313 24.8169 1.54828 24.3607 0.910752 23.4484C0.303584 22.5056 0 21.426 0 20.2096C0 19.3276 0.136613 18.3088 0.409838 17.1532C0.713422 15.9976 1.07772 14.8572 1.50274 13.7319C1.92776 12.6067 2.36795 11.6792 2.82333 10.9493C3.27871 10.2194 3.67336 9.85449 4.00731 9.85449C4.1591 9.85449 4.41715 9.94573 4.78145 10.1282C5.14575 10.2803 5.44933 10.4931 5.6922 10.7668C5.35826 11.2838 4.94842 12.0745 4.46268 13.1389C3.97695 14.2033 3.55193 15.3437 3.18763 16.5602C2.82333 17.7766 2.64118 18.9019 2.64118 19.9359C2.64118 20.1791 2.67154 20.5593 2.73225 21.0763C2.79297 21.5629 2.94476 22.0038 3.18763 22.3992C3.4305 22.7945 3.7948 22.9922 4.28053 22.9922C4.85734 22.9922 5.44933 22.7033 6.0565 22.1255C6.66367 21.5172 7.27083 20.7418 7.878 19.799C8.51553 18.8562 9.1227 17.8375 9.6995 16.7427C10.2763 15.6479 10.8076 14.5987 11.2933 13.5951C11.8094 12.5915 12.2344 11.7552 12.5684 11.0862C12.7505 11.1166 13.0086 11.1774 13.3425 11.2686C13.7068 11.3599 14.0256 11.4815 14.2988 11.6336C14.6024 11.7856 14.7542 11.9985 14.7542 12.2722C14.7542 12.3938 14.6024 12.8044 14.2988 13.5039C13.9952 14.1729 13.6309 15.0092 13.2059 16.0128C12.8112 16.986 12.4621 17.9743 12.1585 18.9779C11.8549 19.9815 11.7032 20.8634 11.7032 21.6237C11.7032 22.1711 11.8094 22.612 12.0219 22.9466C12.2648 23.2811 12.6594 23.4484 13.2059 23.4484C13.8434 23.4484 14.6176 23.1595 15.5283 22.5816C16.4391 22.0038 17.365 21.1675 18.3061 20.0727C19.2472 18.9475 20.0821 17.6094 20.8107 16.0584L21.4027 16.469C20.7651 18.1112 19.9303 19.5709 18.8981 20.8482C17.8659 22.0951 16.773 23.0682 15.6194 23.7677C14.4658 24.4671 13.3425 24.8169 12.2496 24.8169C11.4603 24.8169 10.8228 24.6648 10.337 24.3607C9.88166 24.0566 9.54771 23.646 9.3352 23.129C9.15305 22.6121 9.06198 22.0494 9.06198 21.4412C9.06198 21.0763 9.09234 20.7113 9.15305 20.3464C9.21377 19.9511 9.28967 19.5557 9.38074 19.1604C8.83429 20.1639 8.2423 21.1067 7.60478 21.9886C6.96725 22.8401 6.29937 23.5244 5.60112 24.0414C4.90288 24.5584 4.17428 24.8169 3.41532 24.8169Z" fill="#007AFF"/>
<path d="M127.269 10.0547V7.31875H133.056V9.54174C133.65 8.69814 134.437 8.03695 135.419 7.55815C136.401 7.05656 137.462 6.80576 138.604 6.80576C140.339 6.80576 141.674 7.30735 142.61 8.31055C143.569 9.29094 144.048 10.7729 144.048 12.7565V21.6826L146 21.7852V24.5212H137.85V21.922L138.98 21.8194C139.323 21.7738 139.574 21.6826 139.734 21.5458C139.893 21.3862 139.973 21.1012 139.973 20.6908V13.6457C139.973 12.3917 139.779 11.4683 139.391 10.8755C139.003 10.2599 138.261 9.95213 137.165 9.95213C136.092 9.95213 135.236 10.2941 134.597 10.9781C133.958 11.6621 133.638 12.4715 133.638 13.4063V21.6826L135.59 21.7852V24.5212H127.44V21.922L128.57 21.8194C128.912 21.7738 129.164 21.6826 129.323 21.5458C129.483 21.3862 129.563 21.1012 129.563 20.6908V11.2175C129.563 10.5335 129.278 10.1801 128.707 10.1573L127.269 10.0547Z" fill="#1B0808"/>
<path d="M108.234 3.69356H110.46V7.31874H115.014L114.672 10.1915H110.46V19.186C110.46 20.1892 110.643 20.896 111.008 21.3064C111.373 21.694 111.932 21.8878 112.686 21.8878C113.462 21.8878 114.238 21.6484 115.014 21.1696L116.042 23.803C114.9 24.601 113.451 25 111.693 25C110.665 25 109.798 24.8632 109.09 24.5896C108.382 24.3388 107.857 24.0538 107.515 23.7346C107.172 23.4154 106.91 22.948 106.727 22.3324C106.545 21.7168 106.442 21.238 106.419 20.896C106.396 20.5312 106.385 20.0068 106.385 19.3228V10.1915H103.953L104.296 7.69493C105.369 7.60373 106.179 7.22754 106.727 6.56634C107.275 5.88235 107.777 4.92475 108.234 3.69356Z" fill="#1B0808"/>
<path d="M98.2892 9.91793C97.7413 9.71273 97.0793 9.61014 96.3031 9.61014C95.5269 9.61014 94.899 9.79253 94.4196 10.1573C93.963 10.4993 93.7347 10.9325 93.7347 11.4569C93.7347 11.9585 93.8146 12.3575 93.9745 12.6539C94.1571 12.9275 94.431 13.1669 94.7963 13.3721C95.3671 13.6685 96.0519 13.9307 96.851 14.1587C97.65 14.3639 98.2436 14.5349 98.6317 14.6717C99.0198 14.7857 99.4992 14.9909 100.07 15.2873C100.663 15.5837 101.109 15.9029 101.405 16.2449C102.204 17.0885 102.604 18.1715 102.604 19.4939C102.604 21.2038 101.976 22.549 100.721 23.5294C99.4878 24.487 97.9125 24.9658 95.9949 24.9658C93.2097 24.9658 91.1093 24.6124 89.6939 23.9056V19.1519L92.7759 18.9125V20.5541C92.7759 21.5572 93.7347 22.0588 95.6524 22.0588C97.5701 22.0588 98.5289 21.3634 98.5289 19.9727C98.5289 19.4711 98.3577 19.0607 98.0153 18.7415C97.6957 18.4223 97.3761 18.2057 97.0564 18.0917C96.7368 17.9777 96.3487 17.8637 95.8921 17.7497C95.4584 17.6357 95.0246 17.5217 94.5909 17.4077C94.1799 17.2937 93.7233 17.1455 93.2211 16.9631C92.7417 16.7579 92.2052 16.4729 91.6116 16.1081C90.4473 15.3557 89.8651 14.1017 89.8651 12.3461C89.8651 10.5677 90.493 9.19974 91.7486 8.24215C93.0042 7.28455 94.5794 6.80576 96.4743 6.80576C98.392 6.80576 100.287 7.26175 102.159 8.17375V12.2777L99.0769 12.5171V11.0807C99.0769 10.5107 98.8143 10.1231 98.2892 9.91793Z" fill="#1B0808"/>
<path d="M81.3255 6.80576C83.0377 6.80576 84.396 7.22755 85.4005 8.07115C86.405 8.89194 86.9073 10.0547 86.9073 11.5595C86.9073 12.5627 86.6904 13.4519 86.2567 14.2271C85.8229 14.9795 85.2864 15.5723 84.6472 16.0055C84.0079 16.4387 83.2317 16.7921 82.3186 17.0657C80.789 17.5217 79.0654 17.7497 77.1477 17.7497C77.2162 18.9581 77.5929 19.9385 78.2777 20.6908C78.9626 21.4204 80.0128 21.7852 81.4282 21.7852C82.8436 21.7852 84.2591 21.2836 85.6745 20.2805L86.9758 23.0506C86.5192 23.461 85.743 23.8828 84.6472 24.316C83.5742 24.7492 82.3414 24.9658 80.9488 24.9658C78.1636 24.9658 76.1203 24.202 74.8191 22.6744C73.5178 21.124 72.8671 19.0037 72.8671 16.3133C72.8671 13.6229 73.6091 11.3657 75.093 9.54174C76.5769 7.71775 78.6544 6.80576 81.3255 6.80576ZM79.7502 14.6375C80.5949 14.4779 81.3711 14.1473 82.0789 13.6457C82.7866 13.1213 83.1404 12.5057 83.1404 11.7989C83.1404 10.4081 82.4555 9.71274 81.0858 9.71274C79.8073 9.71274 78.8256 10.2257 78.1408 11.2517C77.4559 12.2549 77.0792 13.4633 77.0107 14.8769C78.0152 14.8541 78.9284 14.7743 79.7502 14.6375Z" fill="#1B0808"/>
<path d="M61.8624 6.80574C62.8441 6.80574 63.7801 6.94254 64.6705 7.21613V3.76196C64.6705 3.26037 64.3737 2.98677 63.7801 2.94117L62.3076 2.83857V0.136789H68.677V20.9302C68.6999 21.4546 68.9852 21.7168 69.5332 21.7168L70.7317 21.7852V24.5212H65.1841V22.5034L65.0814 22.4692C64.0541 24.1336 62.5017 24.9658 60.4242 24.9658C57.8216 24.9658 55.9953 24.0994 54.9451 22.3666C53.9863 20.7934 53.5068 18.8668 53.5068 16.5869C53.5068 13.6229 54.2374 11.2517 55.6985 9.47332C57.1824 7.69493 59.237 6.80574 61.8624 6.80574ZM64.6705 19.186V10.3283C63.8486 9.96351 62.9811 9.78112 62.0679 9.78112C60.5612 9.78112 59.4539 10.3853 58.7462 11.5937C58.0613 12.8021 57.7189 14.3411 57.7189 16.2107C57.7189 20.041 58.9517 21.9562 61.4173 21.9562C62.3533 21.9562 63.1295 21.694 63.7459 21.1696C64.3623 20.6224 64.6705 19.9612 64.6705 19.186Z" fill="#1B0808"/>
<path fill-rule="evenodd" clip-rule="evenodd" d="M123.54 21.6826V7.31874H117.41V10.1573L118.608 10.2257C118.928 10.2257 119.145 10.2941 119.259 10.4309C119.396 10.5677 119.465 10.8299 119.465 11.2175V20.725C119.465 21.3862 119.133 21.751 118.471 21.8194L117.341 21.922V24.5212H125.491V21.7852L123.54 21.6826Z" fill="#1B0808"/>
</svg>
