<svg preserveAspectRatio="none" width="100%" height="100%" overflow="visible" style="display: block;" viewBox="0 0 589.066 322.454" fill="none" xmlns="http://www.w3.org/2000/svg">
<path id="Vector" d="M93.9999 322.454C65.5911 322.454 42.6133 312.623 25.0666 292.961C8.35555 272.644 0 249.377 0 223.162C0 204.155 3.76 182.199 11.28 157.294C19.6355 132.39 29.6622 107.812 41.36 83.5627C53.0577 59.3131 65.1733 39.3236 77.7066 23.5942C90.2399 7.86474 101.102 0 110.293 0C114.471 0 121.573 1.96618 131.6 5.89853C141.627 9.17552 149.982 13.7633 156.667 19.6618C147.475 30.8035 136.195 47.8438 122.827 70.7825C109.458 93.7213 97.7599 118.299 87.7333 144.514C77.7066 170.73 72.6933 194.98 72.6933 217.263C72.6933 222.506 73.5288 230.699 75.1999 241.84C76.8711 252.326 81.0488 261.83 87.7333 270.35C94.4177 278.87 104.444 283.13 117.813 283.13C133.689 283.13 149.982 276.904 166.693 264.451C183.404 251.343 200.115 234.631 216.827 214.314C234.373 193.996 251.084 172.041 266.96 148.447C282.835 124.852 297.458 102.241 310.826 80.6134C325.031 58.9854 336.729 40.9621 345.92 26.5434C350.933 27.1988 358.035 28.5096 367.226 30.4758C377.253 32.442 386.026 35.0636 393.546 38.3406C401.902 41.6175 406.08 46.2053 406.08 52.1038C406.08 54.7254 401.902 63.5732 393.546 78.6473C385.191 93.0659 375.164 111.089 363.466 132.717C352.604 153.69 342.995 174.99 334.64 196.618C326.284 218.246 322.106 237.253 322.106 253.637C322.106 265.434 325.031 274.938 330.88 282.147C337.564 289.356 348.426 292.961 363.466 292.961C381.013 292.961 402.32 286.735 427.386 274.282C452.453 261.83 477.937 243.806 503.84 220.212C529.742 195.963 552.72 167.125 572.773 133.7L589.066 142.548C571.52 177.939 548.542 209.398 520.133 236.925C491.724 263.796 461.644 284.768 429.893 299.843C398.142 314.917 367.226 322.454 337.146 322.454C315.422 322.454 297.875 319.177 284.506 312.623C271.973 306.069 262.782 297.221 256.933 286.079C251.92 274.938 249.413 262.813 249.413 249.705C249.413 241.84 250.249 233.976 251.92 226.111C253.591 217.591 255.68 209.071 258.186 200.55C243.146 222.178 226.853 242.496 209.307 261.502C191.76 279.853 173.378 294.599 154.16 305.741C134.942 316.883 114.889 322.454 93.9999 322.454Z" fill="var(--fill-0, #D6E0F7)"/>
</svg>
