<svg preserveAspectRatio="none" width="100%" height="100%" overflow="visible" style="display: block;" viewBox="0 0 20 15" fill="none" xmlns="http://www.w3.org/2000/svg">
<g id="flag">
<mask id="mask0_0_300" style="mask-type:luminance" maskUnits="userSpaceOnUse" x="0" y="0" width="20" height="15">
<rect id="mask" width="20" height="15" fill="var(--fill-0, white)"/>
</mask>
<g mask="url(#mask0_0_300)">
<path id="middle" fill-rule="evenodd" clip-rule="evenodd" d="M0 0H20V15H0V0Z" fill="var(--fill-0, #DF1C41)"/>
<path id="Combined Shape" d="M20 13.75V15H0V13.75H20ZM20 12.5H0V11.25H20V12.5ZM20 10H0V8.75H20V10ZM20 7.5H0V6.25H20V7.5ZM20 5H0V3.75H20V5ZM20 2.5H0V1.25H20V2.5Z" fill="var(--fill-0, #F7FCFF)"/>
<rect id="Rectangle 82" width="11.25" height="8.75" fill="var(--fill-0, #2E42A5)"/>
<path id="Combined Shape_2" d="M9.76344 1.37553H10.4187L9.90407 1.89603L10.1033 2.71732L9.46266 2.25541L8.93141 2.62553H9.16872L8.65407 3.14603L8.83083 3.87553H9.20387L9.46169 3.2056L9.76344 3.87553H10.4187L9.90407 4.39603L10.1033 5.21732L9.46266 4.75541L8.93141 5.12553H9.16872L8.65407 5.64603L8.83083 6.37553H9.20387L9.46169 5.7056L9.76344 6.37553H10.4187L9.90407 6.89603L10.1033 7.71732L9.46266 7.25541L8.79958 7.71732L9.02321 6.89603L8.43532 6.37553H8.72633L8.21266 6.00541L7.68141 6.37553H7.91872L7.40407 6.89603L7.60329 7.71732L6.96266 7.25541L6.29958 7.71732L6.52321 6.89603L5.93532 6.37553H6.22633L5.71266 6.00541L5.18141 6.37553H5.41872L4.90407 6.89603L5.10329 7.71732L4.46266 7.25541L3.79958 7.71732L4.02321 6.89603L3.43532 6.37553H3.72633L3.21266 6.00541L2.68141 6.37553H2.91872L2.40407 6.89603L2.60329 7.71732L1.96266 7.25541L1.29958 7.71732L1.52321 6.89603L0.935318 6.37553H1.70387L1.96169 5.7056L2.26344 6.37553H2.57497L2.77321 5.64603L2.18532 5.12553H2.47633L1.96266 4.75541L1.29958 5.21732L1.52321 4.39603L0.935318 3.87553H1.70387L1.96169 3.2056L2.26344 3.87553H2.57497L2.77321 3.14603L2.18532 2.62553H2.47633L1.96266 2.25541L1.29958 2.71732L1.52321 1.89603L0.935318 1.37553H1.70387L1.96169 0.705605L2.26344 1.37553H2.91872L2.40407 1.89603L2.58083 2.62553H2.95387L3.21169 1.9556L3.51344 2.62553H3.82497L4.02321 1.89603L3.43532 1.37553H4.20387L4.46169 0.705605L4.76344 1.37553H5.41872L4.90407 1.89603L5.08083 2.62553H5.45387L5.71169 1.9556L6.01344 2.62553H6.32497L6.52321 1.89603L5.93532 1.37553H6.70387L6.96169 0.705605L7.26344 1.37553H7.91872L7.40407 1.89603L7.58083 2.62553H7.95387L8.21169 1.9556L8.51344 2.62553H8.82497L9.02321 1.89603L8.43532 1.37553H9.20387L9.46169 0.705605L9.76344 1.37553ZM6.43141 5.12553H6.66872L6.15407 5.64603L6.33083 6.37553H6.70387L6.96169 5.7056L7.26344 6.37553H7.57497L7.77321 5.64603L7.18532 5.12553H7.47633L6.96266 4.75541L6.43141 5.12553ZM3.93141 5.12553H4.16872L3.65407 5.64603L3.83083 6.37553H4.20387L4.46169 5.7056L4.76344 6.37553H5.07497L5.27321 5.64603L4.68532 5.12553H4.97633L4.46266 4.75541L3.93141 5.12553ZM7.68141 3.87553H7.91872L7.40407 4.39603L7.58083 5.12553H7.95387L8.21169 4.4556L8.51344 5.12553H8.82497L9.02321 4.39603L8.43532 3.87553H8.72633L8.21266 3.50541L7.68141 3.87553ZM2.68141 3.87553H2.91872L2.40407 4.39603L2.58083 5.12553H2.95387L3.21169 4.4556L3.51344 5.12553H3.82497L4.02321 4.39603L3.43532 3.87553H3.72633L3.21266 3.50541L2.68141 3.87553ZM5.18141 3.87553H5.41872L4.90407 4.39603L5.08083 5.12553H5.45387L5.71169 4.4556L6.01344 5.12553H6.32497L6.52321 4.39603L5.93532 3.87553H6.22633L5.71266 3.50541L5.18141 3.87553ZM3.93141 2.62553H4.16872L3.65407 3.14603L3.83083 3.87553H4.20387L4.46169 3.2056L4.76344 3.87553H5.07497L5.27321 3.14603L4.68532 2.62553H4.97633L4.46266 2.25541L3.93141 2.62553ZM6.43141 2.62553H6.66872L6.15407 3.14603L6.33083 3.87553H6.70387L6.96169 3.2056L7.26344 3.87553H7.57497L7.77321 3.14603L7.18532 2.62553H7.47633L6.96266 2.25541L6.43141 2.62553Z" fill="var(--fill-0, #F7FCFF)"/>
</g>
</g>
</svg>
