<svg preserveAspectRatio="none" width="100%" height="100%" overflow="visible" style="display: block;" viewBox="0 0 187 48" fill="none" xmlns="http://www.w3.org/2000/svg">
<g id="Img lib/Logo">
<path id="Vector" d="M36.261 9.83125C38.2568 9.03373 40.3989 8.66811 42.5462 8.75801C44.6936 8.84792 46.7979 9.39112 48.72 10.3527C50.6422 11.3144 52.339 12.6725 53.6985 14.3371C54.6182 15.4304 55.3761 16.6502 55.9485 17.9592C56.7825 19.8678 57.2112 21.9291 57.2083 24.0119C57.2054 28.0498 55.6014 31.922 52.7484 34.7795C49.895 37.637 46.0247 39.2472 41.9866 39.2561C40.0306 39.2549 38.0934 38.8728 36.2835 38.1311C34.9924 37.6181 33.7798 36.9251 32.6829 36.0725C30.9735 34.7697 29.5593 33.1194 28.5335 31.2307C27.5077 29.3421 26.8939 27.2576 26.7318 25.1145C26.5696 22.9713 26.8631 20.8176 27.5931 18.7961C28.323 16.7746 29.4732 14.931 30.9671 13.3859C32.4611 11.8408 34.2653 10.6289 36.261 9.83125ZM53.6985 20.8957C52.8446 21.4995 51.8557 21.8858 50.8187 22.0207C50.0459 22.0996 49.3239 22.4432 48.7747 22.9924C48.2255 23.5416 47.8819 24.2636 47.803 25.0363C47.6032 26.4141 46.9623 27.6907 45.9769 28.674C44.9913 29.6574 43.7134 30.2954 42.3353 30.4924C41.5627 30.5713 40.8404 30.914 40.2913 31.4631C39.7422 32.0123 39.3995 32.7344 39.3206 33.507C39.2201 34.2946 38.9763 35.0573 38.6009 35.757C39.6982 36.0717 40.8344 36.2309 41.9759 36.2297V36.173C43.835 36.1658 45.6676 35.7329 47.3333 34.9074C48.9991 34.082 50.4536 32.886 51.5853 31.4113C52.717 29.9363 53.4964 28.2214 53.8626 26.3986C54.2288 24.5759 54.1728 22.6933 53.6985 20.8957ZM85.8284 20.5363C86.486 20.5106 87.1358 20.6865 87.6907 21.0402C88.2455 21.3941 88.6789 21.9088 88.9329 22.5158V20.6369H92.3079V30.8742C92.3079 33.3379 90.1371 34.8683 86.931 34.8684C83.9498 34.8684 82.093 33.5297 81.9017 31.6623V31.6506H85.1419C85.2961 31.993 85.5568 32.2767 85.8851 32.4592C86.2134 32.6415 86.592 32.7133 86.9642 32.6633C88.2467 32.6633 88.9222 31.9658 88.9222 30.9533V29.0637H88.8548C88.5859 29.6429 88.1493 30.1283 87.6019 30.4572C87.0545 30.786 86.421 30.943 85.7835 30.9084C83.3198 30.9084 81.6878 29.0297 81.6878 25.801C81.6878 22.5722 83.2409 20.5363 85.8284 20.5363ZM49.7835 14.7199C48.8522 15.5925 47.6728 16.1543 46.4085 16.3283C45.6323 16.3813 44.9012 16.7129 44.3499 17.2619C43.7686 17.8321 43.4191 18.5985 43.3704 19.4113C43.1711 20.7874 42.5323 22.0619 41.5491 23.0451C40.5658 24.0285 39.2907 24.6681 37.9144 24.8674C37.1405 24.9307 36.4163 25.2743 35.8782 25.8342C35.3191 26.3786 34.9724 27.1049 34.8997 27.882C34.7205 29.2645 34.0773 30.5455 33.0765 31.5158C32.9416 31.6506 32.807 31.7633 32.6722 31.8869C33.5441 32.9074 34.5776 33.7778 35.7318 34.4631C36.0335 33.9996 36.223 33.4718 36.2835 32.9221C36.4897 31.543 37.1354 30.2674 38.1243 29.2844C39.1133 28.3016 40.3926 27.6637 41.7728 27.466C42.5476 27.3896 43.2729 27.0478 43.8245 26.4982C44.3758 25.9489 44.7197 25.2256 44.7991 24.4514C44.9949 23.0736 45.6326 21.7958 46.6165 20.8117C47.6006 19.8278 48.8784 19.1901 50.2562 18.9943C51.032 18.9209 51.7555 18.5699 52.2923 18.0051C52.3467 17.9582 52.3951 17.9046 52.4378 17.8469C51.7419 16.6579 50.8438 15.5996 49.7835 14.7199ZM116.946 20.4914C119.533 20.5364 121.075 22.4709 121.075 25.8459L121.03 25.8234C121.03 29.1984 119.533 31.1223 116.968 31.1223C116.31 31.1644 115.655 31.0033 115.092 30.6613C114.529 30.3193 114.085 29.8128 113.819 29.2102H113.75V34.2951H110.375V20.6369H113.75V22.4826H113.819C114.072 21.8697 114.508 21.3496 115.068 20.9934C115.627 20.6371 116.283 20.4618 116.946 20.4914ZM75.3655 20.4455C78.5605 20.4455 80.6312 22.4602 80.6312 25.8352C80.631 29.2099 78.6054 31.2346 75.3655 31.2346C72.1258 31.2345 70.1011 29.266 70.1009 25.8352C70.1009 22.4602 72.1707 20.4456 75.3655 20.4455ZM98.8441 20.4348C102.039 20.4348 104.12 22.4484 104.12 25.8234C104.12 29.1984 102.095 31.2238 98.8441 31.2238C95.5932 31.2237 93.5796 29.266 93.5794 25.8352V25.8234C93.5794 22.4486 95.6493 20.4349 98.8441 20.4348ZM126.824 20.423C129.625 20.4231 131.323 21.751 131.402 23.8771H128.33C128.33 23.1459 127.723 22.6848 126.789 22.6848C125.856 22.6848 125.44 23.0447 125.44 23.5734C125.44 24.1022 125.811 24.2714 126.565 24.4289L128.725 24.8674C130.783 25.3062 131.66 26.1387 131.66 27.7023C131.66 29.8397 129.715 31.212 126.846 31.2121C123.977 31.2121 122.099 29.8393 121.952 27.7355H125.203C125.305 28.5005 125.912 28.9513 126.902 28.9514C127.891 28.9514 128.342 28.6249 128.342 28.0852C128.342 27.5452 128.027 27.4326 127.217 27.2639L125.271 26.8469C123.257 26.4306 122.2 25.3622 122.2 23.7873C122.222 21.7623 124.034 20.4455 126.824 20.4455V20.423ZM136.205 26.5324C136.205 27.7585 136.836 28.4113 137.882 28.4113C138.127 28.4118 138.37 28.3598 138.594 28.259C138.817 28.1581 139.017 28.0097 139.179 27.8254C139.34 27.641 139.462 27.4242 139.533 27.1896C139.603 26.9551 139.625 26.708 139.592 26.465V20.6369H142.967L142.922 30.965H139.671V29.0412H139.603C139.424 29.6869 139.03 30.2519 138.486 30.6428C137.941 31.0335 137.28 31.2268 136.611 31.1896C136.098 31.2188 135.585 31.1374 135.107 30.9514C134.628 30.7652 134.195 30.4785 133.836 30.1105C133.478 29.7427 133.203 29.3019 133.03 28.8186C132.856 28.3353 132.788 27.8204 132.83 27.3088V20.6369H136.205V26.5324ZM68.762 30.9875H65.387V17.341H68.762V30.9875ZM108.779 30.9875H105.404V20.6594H108.779V30.9875ZM150.82 20.4455C151.493 20.3917 152.162 20.5932 152.694 21.01C153.225 21.4268 153.58 22.0288 153.688 22.6955H153.756C153.96 22.0217 154.383 21.4348 154.957 21.0275C155.531 20.6203 156.225 20.4153 156.928 20.4455C157.387 20.4301 157.844 20.512 158.269 20.6848C158.695 20.8574 159.079 21.1175 159.398 21.4484C159.716 21.7794 159.961 22.1739 160.117 22.6057C160.273 23.0375 160.337 23.4983 160.303 23.9562V30.9875H156.928V24.8557C156.928 23.7308 156.422 23.2131 155.477 23.2131C155.267 23.2113 155.057 23.2553 154.865 23.341C154.672 23.4267 154.5 23.5524 154.361 23.7102C154.221 23.8679 154.117 24.0538 154.055 24.2551C153.993 24.4566 153.976 24.6693 154.003 24.8781V30.9875H150.797V24.8107C150.797 23.7759 150.291 23.2132 149.368 23.2131C149.156 23.2132 148.944 23.2585 148.75 23.3459C148.556 23.4334 148.381 23.5615 148.241 23.7209C148.099 23.8802 147.993 24.0683 147.929 24.2717C147.866 24.4749 147.847 24.6892 147.872 24.9006V30.9875H144.497L144.553 20.6369H147.816V22.6281H147.883C148.062 21.991 148.448 21.4311 148.979 21.0363C149.51 20.6415 150.158 20.4332 150.82 20.4455ZM41.9866 11.8283C39.9372 11.8269 37.9203 12.3439 36.1243 13.3312C34.3284 14.3186 32.8111 15.7446 31.7142 17.4758C30.6173 19.2071 29.9766 21.188 29.8509 23.2336C29.7253 25.2792 30.1187 27.3235 30.9954 29.176C31.5036 28.6422 31.8166 27.9519 31.8841 27.218C32.0834 25.8418 32.7231 24.5674 33.7064 23.5842C34.6897 22.6008 35.9648 21.9611 37.3411 21.7619C38.1146 21.6916 38.8405 21.3567 39.3958 20.8137C39.951 20.2706 40.3016 19.5522 40.389 18.7805C40.5883 17.4043 41.228 16.1299 42.2112 15.1467C43.1946 14.1633 44.4697 13.5236 45.846 13.3244C46.2642 13.2607 46.6726 13.1436 47.0609 12.9758C45.4682 12.2346 43.7326 11.8506 41.9759 11.8508L41.9866 11.8283ZM98.8441 22.8762C97.6968 22.8765 97.0335 24.0124 97.0335 25.8459C97.0335 27.6796 97.7425 28.7707 98.89 28.7707C100.037 28.7704 100.723 27.7244 100.723 25.8459V25.8234C100.723 23.9672 99.9916 22.8762 98.8441 22.8762ZM75.3655 22.8869C74.2182 22.887 73.4984 24.0128 73.4984 25.8352C73.4985 27.6573 74.207 28.7598 75.3655 28.76C76.5243 28.76 77.2444 27.7246 77.2444 25.8459V25.8352C77.2444 23.9789 76.513 22.8869 75.3655 22.8869ZM115.719 23.135C114.538 23.1352 113.784 24.1924 113.773 25.8234C113.762 27.4545 114.538 28.5009 115.719 28.5012C116.9 28.5012 117.655 27.4771 117.655 25.8459V25.8234C117.655 24.1809 116.9 23.135 115.719 23.135ZM86.9866 23.1457C85.7943 23.1459 85.0628 24.1698 85.0628 25.8234C85.0628 27.477 85.7831 28.4111 86.9866 28.4113C88.1903 28.4113 88.9328 27.4998 88.9329 25.8352V25.8234C88.9329 24.1809 88.1791 23.1457 86.9866 23.1457ZM106.426 16.5666C106.738 16.4285 107.084 16.386 107.419 16.4445C107.755 16.5031 108.066 16.6603 108.313 16.8957C108.559 17.1311 108.73 17.4342 108.804 17.7668C108.878 18.0996 108.852 18.4471 108.728 18.7648C108.604 19.0822 108.389 19.3559 108.11 19.551C107.83 19.7461 107.499 19.8537 107.159 19.8605C106.933 19.8761 106.706 19.845 106.492 19.7687C106.279 19.6925 106.084 19.5725 105.919 19.4172C105.755 19.262 105.623 19.0746 105.534 18.8664C105.446 18.6582 105.401 18.4337 105.404 18.2072V18.1848C105.395 17.844 105.487 17.508 105.669 17.2199C105.851 16.932 106.115 16.7047 106.426 16.5666Z" fill="var(--fill-0, #5B5E63)"/>
</g>
</svg>
