<svg preserveAspectRatio="none" width="100%" height="100%" overflow="visible" style="display: block;" viewBox="0 0 187 48" fill="none" xmlns="http://www.w3.org/2000/svg">
<g id="Img lib/Logo">
<path id="Vector" d="M61.6518 4C72.6975 4 81.6518 12.9543 81.6518 24C81.6518 35.0457 72.6975 44 61.6518 44C50.6061 44 41.6518 35.0457 41.6518 24C41.6518 12.9543 50.6061 4 61.6518 4ZM99.4926 28.6426C102.227 28.6426 103.976 30.8739 103.976 34.0908C103.976 37.4283 102.167 39.5399 99.5131 39.54C98.0657 39.54 97.1206 38.9567 96.5375 38.0723H96.4965V42.6162H93.7621V28.9238H96.3959V30.2109H96.4565C97.12 29.3063 98.0853 28.6426 99.4926 28.6426ZM53.4731 34.3496C53.8578 35.4104 54.2994 36.3929 54.7885 37.2822C56.475 40.3485 58.6475 42.1818 60.9291 42.5029V35.3184C58.2855 35.2659 55.7662 34.9258 53.4731 34.3496ZM69.8305 34.3496C67.5374 34.9258 65.0181 35.2659 62.3745 35.3184V42.5029C64.6562 42.1818 66.8287 40.3485 68.5151 37.2822C69.0042 36.3929 69.4458 35.4104 69.8305 34.3496ZM43.8315 29.1846C45.597 35.2633 50.3885 40.0549 56.4672 41.8203C55.3494 40.8121 54.3569 39.4996 53.5209 37.9795C52.8456 36.7518 52.261 35.3703 51.7827 33.8691C50.2815 33.3909 48.9 32.8061 47.6723 32.1309C46.1523 31.2949 44.8396 30.3024 43.8315 29.1846ZM79.4721 29.1846C78.464 30.3024 77.1512 31.2949 75.6313 32.1309C74.4035 32.8061 73.0221 33.3909 71.5209 33.8691C71.0426 35.3703 70.4579 36.7518 69.7827 37.9795C68.9466 39.4995 67.9542 40.8121 66.8364 41.8203C72.9151 40.0549 77.7067 35.2633 79.4721 29.1846ZM109.109 28.6426C111.823 28.6426 113.332 29.9896 113.533 32.0605H111.059C110.938 30.9547 110.235 30.5527 109.069 30.5527C108.003 30.5528 107.299 30.9545 107.299 31.6982C107.299 32.5828 108.667 32.6633 110.134 32.9648C111.863 33.3267 113.774 33.81 113.774 36.2227C113.774 38.2932 112.004 39.54 109.431 39.54C106.435 39.54 104.766 38.092 104.605 35.9004H107.139C107.32 37.0867 108.165 37.6094 109.391 37.6094C110.597 37.6093 111.281 37.1466 111.281 36.4229C111.28 35.4381 109.973 35.337 108.566 35.0557C106.716 34.6938 104.907 34.1911 104.907 31.9395C104.907 29.708 106.757 28.6427 109.109 28.6426ZM117.641 35.3379C117.641 36.544 118.184 37.207 119.35 37.207C120.637 37.207 121.421 36.2422 121.421 34.875V28.9238H124.156V39.2383H121.522V38.0312H121.461C120.758 38.9762 119.953 39.5195 118.505 39.5195C116.213 39.5194 114.927 38.0515 114.927 35.7998V28.9238H117.641V35.3379ZM92.0004 39.2383H89.2661V28.9238H92.0004V39.2383ZM137.606 28.6426C139.777 28.6427 141.003 30.0499 141.003 32.3018V39.2383H138.269V32.7637C138.269 31.5978 137.686 30.9952 136.681 30.9951C135.535 30.9951 134.832 31.8791 134.831 33.2461V39.2383H132.097V32.7637C132.097 31.5977 131.513 30.9951 130.508 30.9951C129.403 30.9951 128.659 31.8792 128.659 33.2461V39.2383H125.924V28.9238H128.558V30.3115H128.619C129.182 29.3666 130.186 28.6427 131.614 28.6426C132.921 28.6426 133.966 29.3664 134.469 30.4521H134.509C135.213 29.3262 136.299 28.6426 137.606 28.6426ZM98.8295 30.8535C97.1205 30.8535 96.437 32.3222 96.437 34.1719C96.4371 36.0415 97.3016 37.2676 98.9301 37.2676C100.317 37.2674 101.201 36.1217 101.202 34.1719C101.202 32.2217 100.518 30.8537 98.8295 30.8535ZM51.7797 24.7227C51.8394 27.6078 52.2546 30.3168 52.9418 32.71C55.335 33.3972 58.0441 33.8124 60.9291 33.8721V30.749C59.8529 27.9937 57.6573 25.7985 54.9018 24.7227H51.7797ZM68.4028 24.7227C65.6465 25.7989 63.4504 27.9956 62.3745 30.752V33.8721C65.2596 33.8124 67.9686 33.3972 70.3618 32.71C71.049 30.3168 71.4642 27.6078 71.5239 24.7227H68.4028ZM43.1489 24.7227C43.47 27.0044 45.3033 29.1768 48.3696 30.8633C49.2589 31.3524 50.2413 31.794 51.3022 32.1787C50.726 29.8856 50.386 27.3663 50.3334 24.7227H43.1489ZM72.9702 24.7227C72.9177 27.3663 72.5776 29.8856 72.0014 32.1787C73.0622 31.794 74.0447 31.3524 74.934 30.8633C78.0003 29.1768 79.8336 27.0044 80.1547 24.7227H72.9702ZM144.51 26.334C144.973 26.334 145.348 26.7092 145.348 27.1719C145.348 27.6344 144.973 28.0098 144.51 28.0098H142.835C142.372 28.0098 141.998 27.6344 141.998 27.1719C141.998 26.7092 142.372 26.334 142.835 26.334H144.51ZM92.0004 27.3154H89.2661V24.8623H92.0004V27.3154ZM109.347 10.9766C110.634 10.9766 111.579 11.4792 112.203 12.3438H112.243V11.2578H114.876V20.7881C114.876 22.2356 114.414 23.2211 113.65 23.9248C112.785 24.729 111.458 25.0908 109.93 25.0908C107.116 25.0908 105.387 23.8843 105.105 21.874H107.819C108.04 22.5173 108.624 23.0195 109.89 23.0195C111.438 23.0195 112.182 22.2755 112.182 20.8682V19.7422H112.122C111.518 20.4258 110.734 20.9482 109.427 20.9482C107.135 20.948 104.883 19.1387 104.883 16.0225C104.883 12.9464 106.734 10.9766 109.347 10.9766ZM51.3022 15.8213C50.2413 16.206 49.2589 16.6476 48.3696 17.1367C45.3033 18.8231 43.47 20.9956 43.1489 23.2773H50.3334C50.386 20.6337 50.726 18.1144 51.3022 15.8213ZM60.9291 14.1279C58.0441 14.1876 55.335 14.6028 52.9418 15.29C52.2546 17.6832 51.8394 20.3922 51.7797 23.2773H54.9018C57.6573 22.2015 59.8528 20.0063 60.9291 17.251V14.1279ZM62.3745 17.248C63.4504 20.0044 65.6465 22.2011 68.4028 23.2773H71.5239C71.4642 20.3922 71.049 17.6832 70.3618 15.29C67.9686 14.6028 65.2596 14.1876 62.3745 14.1279V17.248ZM72.0014 15.8213C72.5776 18.1144 72.9177 20.6337 72.9702 23.2773H80.1547C79.8336 20.9956 78.0003 18.8231 74.934 17.1367C74.0447 16.6476 73.0622 16.206 72.0014 15.8213ZM98.727 10.9766C101.924 10.9767 104.116 13.3487 104.116 16.4248C104.116 19.5009 101.924 21.8739 98.727 21.874C95.5302 21.874 93.3383 19.501 93.3383 16.4248C93.3384 13.3486 95.5302 10.9766 98.727 10.9766ZM121.523 10.9766C124.72 10.9767 126.912 13.3487 126.912 16.4248C126.912 19.5009 124.72 21.8739 121.523 21.874C118.326 21.874 116.134 19.501 116.134 16.4248C116.134 13.3486 118.326 10.9766 121.523 10.9766ZM92.0405 21.5723H89.3061V7.19629H92.0405V21.5723ZM98.727 13.0469C97.0381 13.0469 96.1128 14.4142 96.1127 16.4248C96.1127 18.4354 97.0381 19.7822 98.727 19.7822C100.396 19.7821 101.34 18.4353 101.34 16.4248C101.34 14.4143 100.396 13.047 98.727 13.0469ZM121.523 13.0469C119.834 13.0469 118.909 14.4142 118.909 16.4248C118.909 18.4354 119.834 19.7822 121.523 19.7822C123.192 19.7821 124.136 18.4353 124.136 16.4248C124.136 14.4143 123.192 13.047 121.523 13.0469ZM56.4672 6.17969C50.3885 7.94518 45.597 12.7367 43.8315 18.8154C44.8396 17.6976 46.1523 16.7051 47.6723 15.8691C48.9 15.1939 50.2815 14.6091 51.7827 14.1309C52.2609 12.6297 52.8457 11.2482 53.5209 10.0205C54.3569 8.5005 55.3494 7.18786 56.4672 6.17969ZM66.8364 6.17969C67.9542 7.18785 68.9466 8.5005 69.7827 10.0205C70.4578 11.2482 71.0426 12.6297 71.5209 14.1309C73.0221 14.6091 74.4035 15.1939 75.6313 15.8691C77.1512 16.7051 78.464 17.6976 79.4721 18.8154C77.7067 12.7367 72.9151 7.94518 66.8364 6.17969ZM109.87 13.168C108.482 13.1681 107.558 14.2536 107.558 15.9824C107.558 17.7316 108.483 18.7568 109.89 18.7568C111.619 18.7568 112.323 17.4907 112.323 15.9629C112.323 14.4549 111.518 13.168 109.87 13.168ZM141.13 17.6309H129.308V15.2793H141.13V17.6309ZM60.9291 5.49707C58.6475 5.81817 56.475 7.65145 54.7885 10.7178C54.2994 11.6071 53.8578 12.5895 53.4731 13.6504C55.7662 13.0742 58.2855 12.7342 60.9291 12.6816V5.49707ZM62.3745 12.6816C65.0181 12.7342 67.5374 13.0741 69.8305 13.6504C69.4458 12.5895 69.0042 11.6071 68.5151 10.7178C66.8287 7.65145 64.6562 5.81817 62.3745 5.49707V12.6816Z" fill="var(--fill-0, #5B5E63)"/>
</g>
</svg>
