<svg preserveAspectRatio="none" width="100%" height="100%" overflow="visible" style="display: block;" viewBox="0 0 187 48" fill="none" xmlns="http://www.w3.org/2000/svg">
<g id="Img lib/Logo">
<path id="Vector" d="M36.3806 21.2139C37.0265 21.025 37.7098 21.0017 38.367 21.1465C39.0241 21.2913 39.6343 21.5992 40.1404 22.042C40.6464 22.4848 41.0324 23.0484 41.2625 23.6797C41.4925 24.3113 41.5598 24.9911 41.4568 25.6553C41.354 26.3193 41.085 26.947 40.6746 27.4795C40.2642 28.0121 39.7247 28.4327 39.1082 28.7021C38.4918 28.9714 37.8173 29.0806 37.1472 29.0205L37.1678 29.041C36.4816 28.9832 35.791 29.0754 35.1443 29.3115C34.4978 29.5475 33.9104 29.9213 33.4236 30.4072C32.9369 30.8932 32.5624 31.4796 32.326 32.125C32.0895 32.7707 31.9965 33.4606 32.0545 34.1455L32.034 34.126C32.111 34.9452 31.9327 35.7678 31.5242 36.4824C31.1156 37.1971 30.4966 37.7687 29.7508 38.1191C29.005 38.4694 28.1692 38.5818 27.3572 38.4404C26.5454 38.2992 25.7967 37.9116 25.2137 37.3301C24.6306 36.7485 24.2418 36.001 24.0994 35.1904C23.9572 34.3799 24.0687 33.5456 24.4187 32.8008C24.7689 32.0558 25.341 31.4369 26.0564 31.0283C26.7719 30.6198 27.5962 30.4413 28.4168 30.5176L28.3972 30.498C29.083 30.5558 29.7733 30.4635 30.4197 30.2275C31.0663 29.9916 31.6536 29.6168 32.1404 29.1309C32.6272 28.6447 33.0026 28.0586 33.239 27.4131C33.4755 26.7674 33.5675 26.0776 33.5096 25.3926L33.5291 25.4121C33.4729 24.8305 33.5462 24.2437 33.743 23.6934C33.9398 23.143 34.256 22.6422 34.6687 22.2275H34.6717C35.1466 21.7515 35.7348 21.4029 36.3806 21.2139ZM34.7273 10.9043C35.4734 10.5541 36.3098 10.4424 37.1219 10.584C37.9338 10.7256 38.6826 11.1144 39.2654 11.6963C39.8482 12.2782 40.2369 13.0254 40.3787 13.8359C40.5205 14.6467 40.4081 15.4818 40.0574 16.2266C39.7067 16.9713 39.1346 17.59 38.4187 17.998C37.7029 18.4061 36.8781 18.5838 36.0574 18.5068L36.0779 18.5264C35.392 18.4686 34.7019 18.5609 34.0555 18.7969C33.4089 19.0329 32.8216 19.4075 32.3347 19.8936C31.848 20.3797 31.4726 20.9658 31.2361 21.6113C30.9998 22.2568 30.9077 22.946 30.9656 23.6309L30.9451 23.6113C31.0034 24.1936 30.9313 24.782 30.7342 25.333C30.5371 25.884 30.2189 26.3843 29.8045 26.7979C29.3899 27.2113 28.8886 27.5282 28.3367 27.7246C27.7847 27.9209 27.196 27.9921 26.6131 27.9336L26.6336 27.9531C25.9475 27.8953 25.2568 27.9875 24.6101 28.2236C23.9636 28.4596 23.3763 28.8343 22.8894 29.3203C22.4028 29.8064 22.0281 30.3927 21.7918 31.0381C21.5554 31.6836 21.4624 32.3727 21.5203 33.0576L21.4998 33.0381C21.5769 33.8575 21.3988 34.6807 20.99 35.3955C20.5813 36.1102 19.9616 36.682 19.2156 37.0322C18.4698 37.3823 17.6339 37.494 16.8221 37.3525C16.01 37.2109 15.2614 36.8223 14.6785 36.2402C14.0956 35.6583 13.7061 34.9113 13.5642 34.1006C13.4224 33.2899 13.5348 32.4548 13.8855 31.71C14.2363 30.9653 14.8085 30.3466 15.5242 29.9385C16.24 29.5304 17.0649 29.3527 17.8855 29.4297L17.866 29.4102C18.552 29.4678 19.2429 29.3758 19.8894 29.1396C20.5358 28.9035 21.1224 28.5288 21.6092 28.043C22.0959 27.557 22.4712 26.9706 22.7078 26.3252C22.9442 25.6797 23.037 24.9905 22.9793 24.3057L22.9988 24.3252C22.9405 23.7429 23.0127 23.1546 23.2097 22.6035C23.4069 22.0527 23.724 21.5521 24.1385 21.1387C24.5529 20.7252 25.0544 20.4092 25.6062 20.2129C26.1583 20.0165 26.7478 19.9443 27.3308 20.0029L27.3113 19.9824C27.9973 20.0403 28.688 19.9479 29.3347 19.7119C29.9813 19.4759 30.5687 19.1021 31.0555 18.6162C31.5422 18.1301 31.9167 17.5431 32.1531 16.8975C32.3894 16.2519 32.4816 15.5628 32.4236 14.8779L32.4431 14.8984C32.366 14.0791 32.5442 13.2557 32.9529 12.541C33.3617 11.8263 33.9813 11.2545 34.7273 10.9043ZM81.8592 19.6162C82.5178 19.5847 83.1748 19.7074 83.7771 19.9756C84.3796 20.2438 84.9106 20.6497 85.3279 21.1602V19.9482L88.7967 19.9512V31.2305C88.7967 35.2215 85.6846 36.909 82.5252 36.9092C81.4129 36.9925 80.2986 36.7676 79.3055 36.2598C78.3123 35.7517 77.4779 34.98 76.8943 34.0293L79.9353 32.2715C80.1806 32.767 80.5716 33.1759 81.0555 33.4434C81.5394 33.7106 82.0934 33.8237 82.6433 33.7676C82.9949 33.8163 83.3532 33.7851 83.6912 33.6768C84.0291 33.5684 84.3387 33.3855 84.5965 33.1416C84.8541 32.8976 85.0538 32.5991 85.1805 32.2676C85.3071 31.936 85.3573 31.5793 85.3279 31.2256V30.1396C84.9106 30.6502 84.3795 31.056 83.7771 31.3242C83.1748 31.5924 82.5178 31.716 81.8592 31.6846C80.2919 31.6351 78.8049 30.9777 77.7137 29.8516C76.6224 28.7254 76.0115 27.2185 76.0115 25.6504C76.0115 24.0822 76.6224 22.5754 77.7137 21.4492C78.8049 20.323 80.2918 19.6656 81.8592 19.6162ZM118.706 19.6182C119.491 19.6548 120.262 19.8461 120.973 20.1816C121.685 20.5172 122.323 20.9903 122.85 21.5732C123.378 22.1562 123.785 22.8382 124.049 23.5791C124.312 24.3198 124.426 25.1055 124.385 25.8906C124.426 26.6757 124.311 27.4614 124.048 28.2021C123.784 28.9428 123.377 29.6242 122.849 30.207C122.322 30.7898 121.683 31.2631 120.972 31.5986C120.261 31.9339 119.491 32.1254 118.706 32.1621C118.045 32.1981 117.385 32.0866 116.773 31.8359C116.161 31.5852 115.612 31.2018 115.167 30.7129V36.582H111.603V19.9512H115.167V21.0664C115.612 20.5779 116.161 20.1948 116.773 19.9443C117.385 19.6938 118.045 19.5822 118.706 19.6182ZM130.532 19.6182C131.461 19.5888 132.38 19.8099 133.195 20.2568C134.01 20.704 134.69 21.3611 135.164 22.1602L132.123 23.7988C131.99 23.488 131.768 23.2229 131.485 23.0371C131.202 22.8512 130.87 22.7527 130.532 22.7539C129.914 22.7539 129.534 22.9941 129.534 23.4189C129.539 24.7736 135.383 23.8702 135.383 28.2656C135.383 30.9979 133.008 32.162 130.442 32.1621C129.405 32.256 128.365 32.0363 127.454 31.5322C126.543 31.0283 125.805 30.2631 125.334 29.335L128.421 27.5771C128.546 28.0061 128.815 28.3788 129.181 28.6338C129.548 28.8889 129.992 29.0109 130.437 28.9785C131.291 28.9785 131.719 28.7169 131.72 28.2432C131.72 26.9352 125.875 27.6246 125.875 23.5146C125.875 20.924 128.061 19.6182 130.532 19.6182ZM140.565 26.7217C140.535 27.0045 140.568 27.2906 140.66 27.5596C140.751 27.8287 140.901 28.0748 141.097 28.2803C141.294 28.4858 141.533 28.6462 141.799 28.75C142.063 28.8538 142.347 28.8981 142.632 28.8809C143.938 28.8808 144.841 28.1216 144.841 26.4346V19.9541L148.401 19.9512V31.8311H144.837V30.7139C144.425 31.2066 143.903 31.5947 143.313 31.8467C142.723 32.0987 142.082 32.2072 141.441 32.1631C139.041 32.1631 137.001 30.4532 137.001 27.2432V19.9512H140.565V26.7217ZM65.8689 20.0557C67.019 19.5752 68.2865 19.4474 69.5096 19.6875C70.7324 19.9277 71.8571 20.5248 72.74 21.4043C73.623 22.2837 74.2245 23.4059 74.4695 24.6279C74.7146 25.85 74.5918 27.1175 74.116 28.2695C73.6402 29.4214 72.8326 30.4058 71.7967 31.0986C70.7607 31.7915 69.5429 32.162 68.2967 32.1621C67.4694 32.1716 66.6482 32.0156 65.8816 31.7041C65.1151 31.3926 64.418 30.9315 63.8318 30.3477C63.2456 29.7638 62.782 29.0688 62.4676 28.3037C62.1529 27.5385 61.9937 26.718 61.9998 25.8906C61.9949 24.6444 62.3599 23.4244 63.0486 22.3857C63.7374 21.3471 64.719 20.536 65.8689 20.0557ZM94.6853 20.0557C95.8353 19.5753 97.1021 19.4474 98.325 19.6875C99.5479 19.9277 100.672 20.5248 101.555 21.4043C102.438 22.2837 103.04 23.4059 103.285 24.6279C103.53 25.85 103.407 27.1175 102.931 28.2695C102.456 29.4212 101.649 30.4058 100.613 31.0986C99.577 31.7916 98.3585 32.1621 97.1121 32.1621C96.2848 32.1716 95.4635 32.0156 94.6971 31.7041C93.9306 31.3926 93.2334 30.9314 92.6472 30.3477C92.0611 29.7638 91.5975 29.0688 91.283 28.3037C90.9684 27.5385 90.8091 26.718 90.8152 25.8906C90.8103 24.6444 91.1752 23.4244 91.864 22.3857C92.5528 21.347 93.5353 20.536 94.6853 20.0557ZM108.996 31.8311H105.426L105.43 19.9512H108.996V31.8311ZM59.9812 31.8291H56.4178V14.4863H59.9812V31.8291ZM164.323 19.6172C167.05 19.6186 168.837 21.5663 168.837 24.5361V31.8291H165.273V24.8447C165.273 23.6568 164.703 22.8966 163.563 22.8965C162.375 22.8965 161.709 23.7283 161.709 25.1299V31.8291H158.146V24.8447C158.146 23.6568 157.576 22.8966 156.435 22.8965C155.247 22.8965 154.582 23.7283 154.582 25.1299V31.8291H151.018V19.9492H154.582V21.042C154.951 20.5576 155.436 20.1726 155.992 19.9238C156.549 19.675 157.158 19.5699 157.765 19.6172C158.375 19.5873 158.983 19.7156 159.529 19.9902C160.074 20.2648 160.538 20.6769 160.878 21.1846C161.273 20.6533 161.796 20.2311 162.398 19.957C163.001 19.683 163.663 19.5658 164.323 19.6172ZM119.026 23.3301C118.508 23.127 117.943 23.0812 117.399 23.1982C116.856 23.3152 116.358 23.5892 115.97 23.9873C115.581 24.3856 115.319 24.8899 115.216 25.4365C115.112 25.9829 115.172 26.5481 115.388 27.0605C115.604 27.5729 115.967 28.0099 116.43 28.3174C116.894 28.6248 117.438 28.7891 117.994 28.7891C118.376 28.8061 118.758 28.7422 119.113 28.6016C119.468 28.461 119.79 28.2462 120.056 27.9727C120.323 27.699 120.529 27.3724 120.661 27.0137C120.793 26.6549 120.847 26.2719 120.82 25.8906C120.806 25.3347 120.628 24.7954 120.309 24.3398C119.99 23.8844 119.544 23.5331 119.026 23.3301ZM69.2898 23.4199C68.7891 23.2246 68.2418 23.1809 67.7166 23.2949C67.1913 23.4089 66.7115 23.6752 66.3367 24.0605C65.9621 24.4457 65.7094 24.9328 65.6101 25.4609C65.5108 25.9891 65.5689 26.5352 65.7781 27.0303C65.9872 27.5251 66.3374 27.9472 66.7849 28.2441C67.2329 28.5411 67.7593 28.7002 68.2967 28.7002C68.6646 28.71 69.0308 28.6436 69.3719 28.5049C69.7128 28.3662 70.0215 28.1583 70.2781 27.8945C70.5348 27.6305 70.7339 27.3155 70.8631 26.9707C70.9922 26.626 71.0491 26.2582 71.0291 25.8906C71.0142 25.3536 70.841 24.833 70.532 24.3936C70.2227 23.9542 69.7904 23.6152 69.2898 23.4199ZM98.1053 23.4199C97.6045 23.2246 97.0571 23.1809 96.532 23.2949C96.0068 23.4089 95.5269 23.6753 95.1521 24.0605C94.7776 24.4457 94.5249 24.9328 94.4256 25.4609C94.3262 25.9891 94.3844 26.5352 94.5935 27.0303C94.8027 27.5253 95.1536 27.9472 95.6013 28.2441C96.0493 28.5411 96.5746 28.7002 97.1121 28.7002C97.4801 28.71 97.8463 28.6436 98.1873 28.5049C98.5283 28.3662 98.8369 28.1583 99.0935 27.8945C99.3502 27.6305 99.5494 27.3155 99.6785 26.9707C99.8077 26.626 99.8645 26.2582 99.8445 25.8906C99.8296 25.3536 99.6565 24.833 99.3474 24.3936C99.0381 23.9541 98.6059 23.6152 98.1053 23.4199ZM83.6355 22.9063C83.1116 22.67 82.529 22.5968 81.9627 22.6943C81.3962 22.792 80.8715 23.0568 80.4568 23.4551C80.0424 23.8531 79.7562 24.3659 79.6355 24.9277C79.5151 25.4896 79.5652 26.0754 79.7801 26.6084C79.995 27.1415 80.365 27.5986 80.8416 27.9199C81.3182 28.2412 81.8801 28.4128 82.4549 28.4121C82.8294 28.4383 83.2055 28.3857 83.5584 28.2578C83.9113 28.1299 84.233 27.9288 84.5037 27.6689C84.7744 27.4089 84.9886 27.0956 85.1306 26.748C85.2727 26.4008 85.3399 26.0274 85.3289 25.6523C85.3529 25.0782 85.2047 24.5096 84.9031 24.0205C84.6013 23.5311 84.1596 23.1425 83.6355 22.9063ZM24.2566 9.87988C25.0022 9.53002 25.8377 9.41806 26.6492 9.55957C27.4607 9.70116 28.2092 10.0894 28.7918 10.6709C29.3744 11.2527 29.7642 12.0001 29.906 12.8105C30.0478 13.621 29.9352 14.4557 29.5847 15.2002C29.2342 15.9445 28.6623 16.5627 27.9471 16.9707C27.2316 17.3788 26.4071 17.5572 25.5867 17.4805L25.6072 17.5C24.9211 17.4419 24.2306 17.5337 23.5838 17.7695C22.9369 18.0055 22.3492 18.3801 21.8621 18.8662C21.3751 19.3523 21 19.9383 20.7635 20.584C20.5269 21.2297 20.4341 21.9194 20.492 22.6045L20.4715 22.585C20.5282 23.1668 20.4553 23.7541 20.2586 24.3047C20.0618 24.8553 19.7456 25.356 19.3328 25.7705H19.3357C18.8607 26.2466 18.2726 26.5952 17.6267 26.7842C16.9809 26.9731 16.2976 26.9963 15.6404 26.8516C14.9833 26.7067 14.3731 26.3989 13.867 25.9561C13.3609 25.5133 12.975 24.9497 12.7449 24.3184C12.5148 23.6869 12.4478 23.0069 12.5506 22.3428C12.6534 21.679 12.9227 21.0519 13.3328 20.5195C13.7431 19.9869 14.2817 19.5655 14.8982 19.2959C15.5145 19.0265 16.189 18.9166 16.8592 18.9766L16.8396 18.957C17.5257 19.0149 18.2164 18.9226 18.8631 18.6865C19.5097 18.4505 20.0969 18.0759 20.5838 17.5898C21.0705 17.1038 21.445 16.5176 21.6814 15.8721C21.9179 15.2266 22.0108 14.5374 21.9529 13.8525L21.9724 13.8721C21.8956 13.053 22.0735 12.23 22.4822 11.5156C22.8909 10.8012 23.5108 10.2299 24.2566 9.87988ZM171.851 14.5879C173.312 14.5879 174.496 15.7719 174.496 17.2324C174.496 18.6931 173.312 19.8779 171.851 19.8779C170.391 19.8779 169.207 18.693 169.207 17.2324C169.207 15.772 170.391 14.588 171.851 14.5879ZM106.39 14.792C106.781 14.6302 107.211 14.5874 107.626 14.6699C108.04 14.7524 108.421 14.956 108.72 15.2549C109.019 15.5539 109.224 15.9349 109.306 16.3496C109.389 16.7644 109.346 17.1952 109.184 17.5859C109.022 17.9765 108.748 18.31 108.396 18.5449C108.045 18.7798 107.632 18.9053 107.209 18.9053C106.644 18.8996 106.103 18.6731 105.703 18.2734C105.303 17.8737 105.076 17.3328 105.07 16.7676C105.07 16.3447 105.196 15.9307 105.43 15.5791C105.665 15.2275 106 14.9538 106.39 14.792Z" fill="var(--fill-0, #5B5E63)"/>
</g>
</svg>
