<svg preserveAspectRatio="none" width="100%" height="100%" overflow="visible" style="display: block;" viewBox="0 0 187 48" fill="none" xmlns="http://www.w3.org/2000/svg">
<g id="Img lib/Logo">
<path id="Vector" d="M69.6321 6.43901C70.5099 6.43902 71.3606 6.73999 72.0393 7.29057L73.2229 8.25053L73.2522 8.2769C73.2795 8.2678 73.3069 8.2592 73.3342 8.25053C75.4692 7.57412 78.0596 7.44585 80.7034 7.44584C83.3473 7.44584 85.9384 7.57409 88.0735 8.25053C88.1008 8.25917 88.1284 8.26783 88.1555 8.2769L88.1848 8.25053L89.3684 7.29057C90.0471 6.74006 90.8979 6.43901 91.7757 6.43901H95.6653C96.8987 6.43901 97.8987 7.42804 97.8987 8.64799V10.0132C97.8987 11.0697 97.449 12.078 96.6594 12.7896L95.7044 13.6499C95.2384 14.0699 94.679 14.3759 94.0715 14.5425L93.846 14.604C94.7305 16.6919 95.219 18.9237 95.219 20.729C95.219 27.9917 90.676 31.1284 86.6731 33.8921C83.5208 36.0686 80.7034 38.0141 80.7034 41.5611C80.7034 38.0141 77.8859 36.0686 74.7337 33.8921C70.7309 31.1285 66.1887 27.9915 66.1887 20.729C66.1888 18.9236 66.6772 16.6919 67.5618 14.604L67.3362 14.5425C66.7286 14.3759 66.1685 14.07 65.7024 13.6499L64.7483 12.7896C63.9588 12.078 63.509 11.0697 63.509 10.0132V8.64799C63.509 7.42814 64.5082 6.43916 65.7415 6.43901H69.6321ZM38.5276 17.4351C40.2133 17.4351 41.4512 18.0936 42.2678 19.2261H42.3206V17.8042H45.7717V30.2896C45.7717 32.186 45.1661 33.477 44.1653 34.399C43.0326 35.4526 41.2932 35.9273 39.2913 35.9273C35.6039 35.9272 33.3389 34.3463 32.97 31.7124H36.5257C36.8154 32.5552 37.5795 33.2133 39.2385 33.2134C41.2668 33.2134 42.2415 32.239 42.2415 30.3951V28.9205H42.1633C41.3731 29.816 40.3452 30.5005 38.6331 30.5005C35.6302 30.5005 32.6799 28.1293 32.6799 24.0464C32.6801 20.0165 35.1034 17.4352 38.5276 17.4351ZM116.115 17.4351C119.697 17.4353 121.989 20.3593 121.989 24.5738C121.988 28.9462 119.618 31.7122 116.141 31.7124C114.244 31.7124 113.005 30.9486 112.241 29.7896H112.19V35.7427H108.607V17.8042H112.058V19.4898H112.137C113.006 18.3045 114.271 17.4351 116.115 17.4351ZM24.6135 17.4351C28.8018 17.4351 31.6731 20.5435 31.6731 24.5738C31.673 28.604 28.8018 31.7124 24.6135 31.7124C20.4254 31.7123 17.554 28.6039 17.554 24.5738C17.554 20.5436 20.4253 17.4352 24.6135 17.4351ZM54.4798 17.4351C58.6678 17.4353 61.5393 20.5436 61.5393 24.5738C61.5393 28.6038 58.6678 31.7123 54.4798 31.7124C50.2915 31.7124 47.4202 28.604 47.4202 24.5738C47.4202 20.5435 50.2915 17.4351 54.4798 17.4351ZM128.713 17.4351C132.269 17.4351 134.245 19.2004 134.508 21.9136H131.269C131.111 20.4648 130.188 19.9371 128.66 19.9371C127.264 19.9371 126.342 20.4644 126.342 21.439C126.342 22.598 128.134 22.7031 130.057 23.0982C132.322 23.5723 134.824 24.2049 134.824 27.3658C134.824 30.0788 132.507 31.7123 129.135 31.7124C125.21 31.7124 123.023 29.8151 122.813 26.9439H126.132C126.369 28.498 127.475 29.1831 129.082 29.1831C130.662 29.1831 131.558 28.5776 131.558 27.6294C131.558 26.3388 129.846 26.2072 128.002 25.8384C125.579 25.3643 123.208 24.7054 123.208 21.7554C123.208 18.8315 125.631 17.4351 128.713 17.4351ZM139.892 26.2066C139.892 27.7871 140.603 28.6568 142.131 28.6568C143.817 28.6566 144.844 27.3921 144.844 25.6011V17.8042H148.426V31.3169H144.976V29.7369H144.897C143.975 30.9748 142.921 31.686 141.025 31.6861C138.022 31.6861 136.335 29.7631 136.335 26.813V17.8042H139.892V26.2066ZM15.8538 31.3169H12.2717V12.483H15.8538V31.3169ZM106.298 31.3169H102.716V17.8042H106.298V31.3169ZM166.048 17.4351C168.893 17.4352 170.499 19.279 170.499 22.229V31.3169H166.917V22.8355C166.917 21.3077 166.153 20.5171 164.836 20.5171C163.335 20.5171 162.412 21.6761 162.412 23.4673V31.3169H158.83V22.8355C158.83 21.3077 158.066 20.5171 156.749 20.5171C155.301 20.5172 154.325 21.6761 154.325 23.4673V31.3169H150.743V17.8042H154.195V19.6216H154.274C155.011 18.3836 156.328 17.4351 158.199 17.4351C159.911 17.4352 161.28 18.3839 161.939 19.8062H161.991C162.913 18.3311 164.336 17.4351 166.048 17.4351ZM80.7034 20.0249C79.8456 20.025 79.0102 20.3537 78.5012 21.0367C76.9741 23.0859 75.4067 26.539 76.9075 28.1763C78.6075 29.9383 79.7247 28.8425 80.1614 27.6861C79.9048 27.872 79.5845 27.9751 79.2522 27.9751C78.8673 27.9751 78.498 27.8375 78.2258 27.5923C77.9537 27.3469 77.801 27.0136 77.801 26.6665H83.6067C83.6067 27.0136 83.4541 27.3469 83.1819 27.5923C82.9098 27.8376 82.5404 27.9751 82.1555 27.9751C81.8232 27.9751 81.5019 27.872 81.2454 27.6861C81.6821 28.8425 82.8003 29.9384 84.5003 28.1763C86.0008 26.539 84.4335 23.0858 82.9065 21.0367C82.3975 20.3536 81.5612 20.0249 80.7034 20.0249ZM24.6135 20.148C22.401 20.1481 21.1897 21.9397 21.1897 24.5738C21.1898 27.2077 22.4011 28.9721 24.6135 28.9722C26.7998 28.9722 28.0383 27.2078 28.0383 24.5738C28.0383 21.9396 26.7999 20.148 24.6135 20.148ZM54.4798 20.148C52.2671 20.148 51.0549 21.9396 51.0549 24.5738C51.055 27.2078 52.2671 28.9722 54.4798 28.9722C56.6658 28.972 57.9035 27.2077 57.9036 24.5738C57.9036 21.9398 56.6659 20.1482 54.4798 20.148ZM115.244 20.3326C113.006 20.3328 112.111 22.256 112.111 24.6792C112.111 27.1287 113.243 28.7357 115.376 28.7359C117.194 28.7359 118.353 27.2342 118.353 24.6792C118.353 22.1241 117.457 20.3326 115.244 20.3326ZM39.2122 20.3062C37.395 20.3064 36.184 21.7288 36.1839 23.9937C36.1839 26.2852 37.3949 27.6292 39.2385 27.6294C41.5039 27.6294 42.426 25.9693 42.426 23.9673C42.4259 21.9919 41.372 20.3062 39.2122 20.3062ZM74.2883 18.9683C74.9896 19.5237 76.0146 19.3463 76.4485 18.5943C76.9963 17.6448 76.2683 16.4449 75.1448 16.4449H71.1008L74.2883 18.9683ZM86.262 16.4449C85.1387 16.4452 84.4114 17.6449 84.9592 18.5943C85.3932 19.3463 86.4181 19.5237 87.1194 18.9683L90.3059 16.4449H86.262ZM173.631 13.7564C174.237 13.7566 174.728 14.248 174.728 14.854C174.728 15.4598 174.237 15.9505 173.631 15.9507H171.436C170.829 15.9507 170.338 15.46 170.338 14.854C170.338 14.2479 170.829 13.7564 171.436 13.7564H173.631ZM106.298 15.6968H102.716V12.483H106.298V15.6968Z" fill="var(--fill-0, #5B5E63)"/>
</g>
</svg>
