<svg preserveAspectRatio="none" width="100%" height="100%" overflow="visible" style="display: block;" viewBox="0 0 187 48" fill="none" xmlns="http://www.w3.org/2000/svg">
<g id="Img lib/Logo">
<path id="Vector" d="M36.8011 6.43904C46.4997 6.43904 54.3624 14.3011 54.3626 23.9996C54.3626 33.6983 46.4998 41.5611 36.8011 41.5611C27.1026 41.5609 19.2405 33.6981 19.2405 23.9996C19.2407 14.3013 27.1028 6.43926 36.8011 6.43904ZM91.7112 20.7965C93.144 20.7966 94.1133 21.366 94.7454 22.2721H94.7874V21.1129H98.0745V30.8492C98.0744 32.4716 97.5058 33.6516 96.6419 34.4312C95.6936 35.2741 94.2815 35.6324 92.68 35.6324C89.7088 35.6324 87.7486 34.4097 87.4114 32.1549H90.7415C90.9312 32.7238 91.5 33.2086 92.638 33.2086C94.0919 33.2086 94.7033 32.4504 94.7034 31.1441V30.0689H94.6185C93.9863 30.7853 93.1649 31.312 91.8587 31.3121C89.4354 31.3121 87.1802 29.5002 87.18 26.192C87.18 23.031 89.0349 20.7965 91.7112 20.7965ZM123.154 20.7965C126.019 20.7965 127.769 23.2623 127.769 26.5074C127.769 30.0055 125.893 32.2397 123.07 32.2398C121.679 32.2398 120.688 31.6917 120.014 30.7857H119.972V35.4635H116.536V21.1129H119.825V22.4195H119.887C120.625 21.4502 121.679 20.7965 123.154 20.7965ZM34.0911 27.9928C32.5942 29.4897 32.5943 31.9167 34.0911 33.4137C35.5881 34.9106 38.015 34.9106 39.512 33.4137C41.0088 31.9167 41.0089 29.4897 39.512 27.9928L36.8011 25.2828L34.0911 27.9928ZM80.9085 20.8179C84.3856 20.8179 86.6614 23.2836 86.6614 26.5289C86.6614 29.7741 84.3855 32.2398 80.9085 32.2398C77.4526 32.2397 75.1351 29.774 75.1351 26.5289C75.1351 23.2837 77.4526 20.818 80.9085 20.8179ZM104.856 20.8179C108.332 20.8181 110.608 23.2837 110.608 26.5289C110.608 29.774 108.332 32.2397 104.856 32.2398C101.4 32.2398 99.0814 29.7741 99.0814 26.5289C99.0814 23.2836 101.4 20.8179 104.856 20.8179ZM133.066 20.7965C136.121 20.7965 137.765 22.1243 137.934 24.2525H134.773C134.646 23.2835 133.993 22.9889 133.045 22.9888C132.202 22.9888 131.549 23.3047 131.549 23.9791C131.549 24.7375 132.771 24.8424 134.141 25.0953C136.037 25.4114 138.271 25.8966 138.271 28.6568C138.271 31.017 136.184 32.2398 133.361 32.2398C130.2 32.2397 128.219 30.7851 128.114 28.4039H131.359C131.485 29.4786 132.202 30.0054 133.34 30.0054C134.373 30.0054 135.026 29.6265 135.026 28.9312C135.026 27.9619 133.719 27.856 132.286 27.6031C130.411 27.287 128.409 26.7813 128.409 24.2525C128.409 21.9769 130.516 20.7965 133.066 20.7965ZM142.558 27.4771C142.558 28.6571 143.084 29.31 144.18 29.3101C145.36 29.3101 146.076 28.4255 146.076 27.1402V21.1129H149.512V31.9029H146.225V30.5748H146.161C145.382 31.6284 144.433 32.2183 142.937 32.2183C140.45 32.2183 139.144 30.596 139.144 28.1939V21.1129H142.558V27.4771ZM67.9056 28.7418H74.6702V31.9029H64.1761V16.8355H67.9056V28.7418ZM115.047 31.9029H111.612V21.1129H115.047V31.9029ZM164.093 20.7965C166.537 20.7966 167.759 22.462 167.759 24.8853V31.9019H164.325V25.4957C164.324 24.3369 163.839 23.6627 162.807 23.6627C161.711 23.6629 161.1 24.5689 161.1 25.8541V31.9019H157.665V25.4957C157.665 24.3369 157.18 23.6627 156.148 23.6627C155.073 23.6629 154.442 24.5689 154.442 25.8541V31.9019H151.006V21.1129H154.293V22.651H154.357C155.031 21.5342 156.064 20.7965 157.623 20.7965C159.035 20.7965 160.11 21.5342 160.658 22.6929H160.7C161.542 21.3865 162.702 20.7965 164.093 20.7965ZM80.888 23.2418C79.3918 23.2418 78.6116 24.5691 78.6116 26.5289C78.6117 28.4886 79.3918 29.7955 80.888 29.7955C82.3839 29.7953 83.1848 28.4885 83.1849 26.5289C83.1849 24.5693 82.3839 23.242 80.888 23.2418ZM104.834 23.2418C103.338 23.2419 102.559 24.5692 102.559 26.5289C102.559 28.4886 103.338 29.7954 104.834 29.7955C106.33 29.7955 107.131 28.4886 107.131 26.5289C107.131 24.5691 106.33 23.2418 104.834 23.2418ZM122.121 23.5572C120.625 23.5572 119.867 24.8853 119.867 26.6344C119.867 28.3831 120.709 29.5843 122.184 29.5846C123.49 29.5846 124.291 28.4676 124.291 26.6344C124.291 24.78 123.596 23.5574 122.121 23.5572ZM92.6595 23.3892C91.374 23.3892 90.5306 24.4428 90.5306 26.0865C90.5307 27.709 91.3741 28.7623 92.6595 28.7623C94.1554 28.7621 94.8509 27.5822 94.8509 26.065C94.8508 24.6112 94.0922 23.3895 92.6595 23.3892ZM32.8089 21.2896C31.312 19.7928 28.885 19.7929 27.388 21.2896C25.8911 22.7866 25.8911 25.2135 27.388 26.7105C28.885 28.2073 31.312 28.2074 32.8089 26.7105L35.5189 23.9996L32.8089 21.2896ZM46.2151 21.2896C44.7182 19.7928 42.2912 19.7928 40.7942 21.2896L38.0843 23.9996L40.7942 26.7105C42.2912 28.2075 44.7181 28.2074 46.2151 26.7105C47.712 25.2135 47.712 22.7866 46.2151 21.2896ZM39.512 14.5865C38.015 13.0895 35.5881 13.0895 34.0911 14.5865C32.5943 16.0835 32.5943 18.5105 34.0911 20.0074L36.8011 22.7174L39.512 20.0074C41.0089 18.5105 41.0087 16.0835 39.512 14.5865ZM115.047 19.6168H111.612V16.8355H115.047V19.6168Z" fill="var(--fill-0, #5B5E63)"/>
</g>
</svg>
