<svg preserveAspectRatio="none" width="100%" height="100%" overflow="visible" style="display: block;" viewBox="0 0 187 48" fill="none" xmlns="http://www.w3.org/2000/svg">
<g id="Img lib/Logo">
<path id="Vector" d="M49.3195 24C49.3195 32.8366 41.9322 40 32.8195 40C32.8195 31.1634 40.2068 24 49.3195 24ZM16.3195 24C25.4322 24 32.8195 31.1634 32.8195 40C23.7068 40 16.3195 32.8366 16.3195 24ZM89.6086 19.3857C90.2501 19.3857 90.8346 19.4768 91.3615 19.6602C91.8959 19.8357 92.3732 20.0877 92.7932 20.416V19.7285H95.5187V32.9473C95.5187 33.2527 95.5034 33.5394 95.4728 33.8066C95.4499 34.0816 95.4048 34.3528 95.3361 34.6201C95.1376 35.3761 94.7669 35.9986 94.2248 36.4873C93.6903 36.976 93.033 37.3385 92.2541 37.5752C91.4754 37.8195 90.6314 37.9414 89.7228 37.9414C88.6692 37.9414 87.7035 37.6935 86.8254 37.1973C85.9473 36.7086 85.2714 36.0633 84.798 35.2617L87.6838 33.8643C87.8823 34.2307 88.1651 34.5093 88.5314 34.7002C88.9056 34.8911 89.311 34.9863 89.7463 34.9863C90.212 34.9863 90.6513 34.9065 91.0637 34.7461C91.4759 34.5934 91.8037 34.3599 92.048 34.0469C92.3 33.7414 92.4188 33.3595 92.4035 32.9014V31.6533C91.9988 31.9053 91.5482 32.0999 91.0519 32.2373C90.5632 32.3747 90.0287 32.4433 89.4484 32.4434C88.3107 32.4434 87.3135 32.1576 86.4582 31.585C85.603 31.0123 84.9353 30.2329 84.4543 29.248C83.9808 28.2629 83.7443 27.1511 83.7443 25.9141C83.7444 24.6544 83.9841 23.5358 84.465 22.5586C84.9537 21.5735 85.6377 20.7985 86.5158 20.2334C87.3939 19.6684 88.425 19.3857 89.6086 19.3857ZM121.655 19.3857C122.839 19.3857 123.87 19.6684 124.748 20.2334C125.626 20.7985 126.306 21.5736 126.787 22.5586C127.276 23.5358 127.52 24.6543 127.52 25.9141C127.52 27.1511 127.28 28.2629 126.798 29.248C126.325 30.2329 125.661 31.0123 124.806 31.585C123.951 32.1576 122.953 32.4434 121.816 32.4434C121.235 32.4433 120.697 32.3747 120.2 32.2373C119.712 32.0999 119.265 31.9052 118.861 31.6533V37.5977H115.722V19.7285H118.472V20.416C118.891 20.0878 119.365 19.8357 119.892 19.6602C120.426 19.4769 121.014 19.3858 121.655 19.3857ZM142.417 25.5713C142.417 25.8538 142.432 26.2165 142.463 26.6592C142.494 27.0944 142.589 27.5336 142.749 27.9766C142.909 28.4193 143.17 28.7892 143.529 29.0869C143.895 29.3847 144.41 29.5342 145.074 29.5342C145.342 29.5342 145.628 29.4921 145.933 29.4082C146.239 29.3241 146.526 29.1635 146.793 28.9268C147.06 28.6824 147.278 28.327 147.446 27.8613C147.621 27.3879 147.709 26.7693 147.709 26.0059V19.7295H150.847V32.0996H148.099V30.8281C147.648 31.3245 147.09 31.7217 146.426 32.0195C145.761 32.3173 144.983 32.4668 144.089 32.4668C143.12 32.4668 142.329 32.3019 141.719 31.9736C141.108 31.6452 140.63 31.2296 140.286 30.7256C139.95 30.2216 139.71 29.6984 139.565 29.1562C139.42 28.6064 139.332 28.1058 139.301 27.6553C139.27 27.2052 139.255 26.877 139.255 26.6709V19.7295H142.417V25.5713ZM77.01 19.3857C78.2545 19.3858 79.3462 19.6643 80.2853 20.2217C81.2322 20.7791 81.9693 21.5502 82.4963 22.5352C83.0231 23.5125 83.2863 24.6389 83.2863 25.9141C83.2863 27.1969 83.0191 28.3313 82.4846 29.3164C81.9576 30.2937 81.2214 31.0617 80.2746 31.6191C79.3354 32.1689 78.247 32.4433 77.01 32.4434C75.7653 32.4434 74.6729 32.1649 73.7336 31.6074C72.7944 31.05 72.0612 30.2822 71.5344 29.3047C71.0152 28.3197 70.7551 27.1892 70.7551 25.9141C70.7551 24.6238 71.0225 23.4899 71.5568 22.5127C72.0914 21.5276 72.8286 20.7598 73.7678 20.21C74.707 19.6602 75.7881 19.3857 77.01 19.3857ZM102.919 19.3857C104.164 19.3857 105.256 19.6642 106.196 20.2217C107.142 20.7791 107.879 21.5503 108.405 22.5352C108.933 23.5125 109.196 24.6389 109.196 25.9141C109.196 27.1969 108.928 28.3313 108.394 29.3164C107.867 30.2938 107.13 31.0617 106.184 31.6191C105.245 32.1689 104.156 32.4434 102.919 32.4434C101.675 32.4433 100.583 32.1647 99.6437 31.6074C98.7045 31.05 97.9714 30.2822 97.4445 29.3047C96.9252 28.3196 96.6652 27.1893 96.6652 25.9141C96.6653 24.6237 96.9326 23.49 97.467 22.5127C98.0016 21.5276 98.7387 20.7598 99.6779 20.21C100.617 19.6603 101.697 19.3858 102.919 19.3857ZM132.982 19.3857C134.44 19.3858 135.639 19.7176 136.577 20.3818C137.517 21.0386 138.068 21.9283 138.228 23.0508L135.043 23.624C134.929 22.6772 134.264 22.1571 133.05 22.0654C132.478 22.0273 132.015 22.104 131.663 22.2949C131.32 22.4858 131.149 22.7606 131.149 23.1191C131.149 23.333 131.221 23.5131 131.365 23.6582C131.518 23.8033 131.829 23.9519 132.294 24.1045C132.768 24.2572 133.486 24.4558 134.447 24.7002C135.86 25.0666 136.86 25.5287 137.448 26.0859C138.043 26.6434 138.342 27.404 138.342 28.3662C138.342 29.6336 137.883 30.6301 136.967 31.3555C136.051 32.0808 134.783 32.4433 133.165 32.4434C131.607 32.4434 130.347 32.0922 129.385 31.3896C128.43 30.6795 127.85 29.6792 127.644 28.3887L130.827 27.9072C130.957 28.4875 131.244 28.9422 131.687 29.2705C132.137 29.5989 132.706 29.7637 133.394 29.7637C133.959 29.7636 134.394 29.6561 134.699 29.4424C135.004 29.2209 135.157 28.9157 135.157 28.5264C135.157 28.2821 135.096 28.0874 134.974 27.9424C134.852 27.7897 134.577 27.6402 134.15 27.4951C133.729 27.35 133.073 27.1596 132.179 26.9229C130.667 26.5334 129.602 26.0675 128.984 25.5254C128.365 24.9756 128.056 24.227 128.056 23.2803C128.056 22.089 128.503 21.142 129.396 20.4395C130.289 19.7369 131.485 19.3857 132.982 19.3857ZM63.7678 29.1904H70.8693V32.0996H60.6525V15.6055H63.7678V29.1904ZM113.686 32.0996H110.57V19.7295H113.686V32.0996ZM166.397 19.4316C167.81 19.4317 168.875 19.8516 169.592 20.6914C170.317 21.5237 170.681 22.6154 170.681 23.9668V32.0996H167.566V24.792C167.566 23.9749 167.37 23.3412 166.981 22.8906C166.599 22.4325 166.069 22.2032 165.389 22.2031C164.74 22.2031 164.216 22.4284 163.82 22.8789C163.43 23.3218 163.236 23.8985 163.236 24.6084V32.0996H160.12V24.792C160.12 23.9749 159.924 23.3412 159.535 22.8906C159.154 22.4326 158.623 22.2031 157.944 22.2031C157.294 22.2032 156.771 22.4285 156.374 22.8789C155.985 23.3218 155.79 23.8984 155.79 24.6084V32.0996H152.652V19.7295H155.401V21.0811C155.813 20.5695 156.332 20.1681 156.958 19.8779C157.584 19.5802 158.271 19.4317 159.02 19.4316C159.905 19.4316 160.647 19.6067 161.242 19.958C161.838 20.3092 162.296 20.7752 162.616 21.3555C163.014 20.7599 163.544 20.29 164.208 19.9463C164.873 19.6027 165.603 19.4316 166.397 19.4316ZM90.0666 22.1572C89.3719 22.1573 88.7993 22.3293 88.3488 22.6729C87.9059 23.0089 87.5773 23.4634 87.3635 24.0361C87.1497 24.6011 87.0432 25.227 87.0432 25.9141C87.0432 26.609 87.1456 27.2436 87.3518 27.8164C87.5579 28.3814 87.8754 28.8321 88.3029 29.168C88.7306 29.5038 89.2806 29.6719 89.9523 29.6719C90.9985 29.6718 91.7315 29.3279 92.1516 28.6406C92.5791 27.9457 92.7932 27.0365 92.7932 25.9141C92.7931 24.792 92.5831 23.8873 92.1633 23.2002C91.7432 22.5053 91.0441 22.1572 90.0666 22.1572ZM121.197 22.1572C120.227 22.1573 119.529 22.5053 119.102 23.2002C118.682 23.8873 118.472 24.7918 118.472 25.9141C118.472 27.0365 118.685 27.9457 119.112 28.6406C119.541 29.3279 120.273 29.6718 121.312 29.6719C121.984 29.6719 122.534 29.5037 122.961 29.168C123.389 28.8321 123.706 28.3814 123.912 27.8164C124.118 27.2436 124.222 26.609 124.222 25.9141C124.222 25.227 124.115 24.6011 123.901 24.0361C123.687 23.4634 123.354 23.0089 122.904 22.6729C122.461 22.3294 121.892 22.1572 121.197 22.1572ZM77.01 22.2949C75.9944 22.2949 75.2459 22.6309 74.7648 23.3027C74.2914 23.967 74.0549 24.8375 74.0549 25.9141C74.0549 27.0213 74.3026 27.9038 74.799 28.5605C75.303 29.2096 76.0401 29.5342 77.01 29.5342C78.0101 29.5341 78.7547 29.1982 79.2434 28.5264C79.7398 27.8467 79.9875 26.9755 79.9875 25.9141C79.9874 24.8146 79.7355 23.9369 79.2316 23.2803C78.7353 22.6236 77.9949 22.295 77.01 22.2949ZM102.919 22.2949C101.904 22.295 101.155 22.6308 100.674 23.3027C100.201 23.967 99.9641 24.8375 99.9641 25.9141C99.9641 27.0212 100.212 27.9038 100.708 28.5605C101.212 29.2096 101.949 29.5341 102.919 29.5342C103.919 29.5342 104.664 29.1981 105.153 28.5264C105.649 27.8467 105.898 26.9755 105.898 25.9141C105.898 24.8148 105.646 23.9369 105.142 23.2803C104.645 22.6235 103.904 22.2949 102.919 22.2949ZM32.8195 8C32.8195 16.8366 25.4322 24 16.3195 24C16.3195 15.1634 23.7068 8 32.8195 8ZM32.8195 8C41.9322 8 49.3195 15.1634 49.3195 24C40.2068 24 32.8195 16.8366 32.8195 8ZM113.686 18.0107H110.57V15.2617H113.686V18.0107Z" fill="var(--fill-0, #5B5E63)"/>
</g>
</svg>
