<svg preserveAspectRatio="none" width="100%" height="100%" overflow="visible" style="display: block;" viewBox="0 0 187 48" fill="none" xmlns="http://www.w3.org/2000/svg">
<g id="Img lib/Logo">
<path id="Vector" d="M42.0189 20.5398C43.5867 20.5399 45.0979 20.7818 46.5169 21.2313V31.5223C45.4256 30.2638 43.8154 29.4677 42.0189 29.4676C38.7317 29.4676 36.0667 32.1325 36.0667 35.4197C36.0668 36.2823 36.2505 37.1018 36.5804 37.8416H27.3343C27.2053 37.0535 27.139 36.2444 27.139 35.4197C27.139 27.2017 33.8008 20.5398 42.0189 20.5398ZM71.7357 11.0086C73.566 11.0086 74.9671 11.5287 75.9388 12.5682C76.9103 13.6076 77.3958 15.0765 77.3958 16.9744V29.4471C77.3958 31.3451 76.9104 32.8139 75.9388 33.8533C74.9671 34.8928 73.566 35.4129 71.7357 35.4129C69.9055 35.4129 68.5042 34.8928 67.5326 33.8533C66.5611 32.8139 66.0755 31.3451 66.0755 29.4471V16.9744C66.0755 15.0766 66.5612 13.6076 67.5326 12.5682C68.5042 11.5288 69.9055 11.0086 71.7357 11.0086ZM85.2054 11.0086C87.0129 11.0087 88.3912 11.5288 89.3402 12.5682C90.2891 13.585 90.764 15.0539 90.764 16.9744V19.0076H87.2386V16.7371C87.2386 15.1781 86.5948 14.3984 85.307 14.3982C84.0191 14.3982 83.3744 15.178 83.3744 16.7371V29.7186C83.3744 31.2549 84.0191 32.0232 85.307 32.0232C86.5947 32.0231 87.2386 31.2548 87.2386 29.7186V25.075H85.3744V21.6854H90.764V29.4471C90.764 31.3678 90.2893 32.8481 89.3402 33.8875C88.3912 34.9042 87.0129 35.4128 85.2054 35.4129C83.3978 35.4129 82.0188 34.9043 81.0697 33.8875C80.1207 32.8481 79.6468 31.3678 79.6468 29.4471V16.9744C79.6468 15.0539 80.1208 13.585 81.0697 12.5682C82.0188 11.5287 83.3977 11.0086 85.2054 11.0086ZM98.5462 11.0086C100.377 11.0086 101.778 11.5287 102.749 12.5682C103.721 13.6076 104.207 15.0764 104.207 16.9744V29.4471C104.207 31.3452 103.721 32.8139 102.749 33.8533C101.778 34.8928 100.377 35.4129 98.5462 35.4129C96.7162 35.4128 95.3156 34.8926 94.3441 33.8533C93.3724 32.8139 92.8861 31.3452 92.8861 29.4471V16.9744C92.8861 15.0763 93.3724 13.6076 94.3441 12.5682C95.3156 11.5288 96.7161 11.0087 98.5462 11.0086ZM131.446 11.0086C133.23 11.0086 134.575 11.5288 135.479 12.5682C136.405 13.585 136.868 15.054 136.868 16.9744V17.9568H133.343V16.7371C133.343 15.9237 133.185 15.336 132.868 14.9744C132.552 14.5904 132.089 14.3982 131.479 14.3982C130.236 14.3984 129.616 15.1552 129.616 16.6688C129.616 17.5274 129.842 18.3303 130.293 19.076C130.767 19.8215 131.615 20.7251 132.835 21.7869C134.394 23.1425 135.467 24.3741 136.055 25.4813C136.642 26.5885 136.937 27.8883 136.937 29.3797C136.937 31.3227 136.45 32.8139 135.479 33.8533C134.53 34.8928 133.139 35.4129 131.309 35.4129C129.502 35.4128 128.135 34.9042 127.208 33.8875C126.282 32.8481 125.819 31.3678 125.819 29.4471V28.0916H129.344V29.7186C129.344 31.2549 129.988 32.0232 131.276 32.0232C131.909 32.0232 132.383 31.8427 132.7 31.4813C133.038 31.0971 133.207 30.4863 133.207 29.6502C133.207 28.6563 132.982 27.7863 132.531 27.0408C132.079 26.2725 131.243 25.3568 130.022 24.2947C128.486 22.939 127.412 21.7192 126.801 20.6346C126.192 19.5274 125.887 18.2843 125.887 16.9061C125.887 15.0308 126.361 13.5849 127.31 12.5682C128.259 11.5287 129.638 11.0086 131.446 11.0086ZM142.667 29.7186C142.667 30.5319 142.825 31.1197 143.141 31.4813C143.48 31.8427 143.955 32.0232 144.565 32.0232C145.175 32.0232 145.638 31.8426 145.954 31.4813C146.293 31.1197 146.463 30.5319 146.463 29.7186V11.3475H150.055V29.4471C150.055 31.3678 149.581 32.8481 148.632 33.8875C147.683 34.9043 146.304 35.4129 144.497 35.4129C142.69 35.4129 141.311 34.9043 140.362 33.8875C139.412 32.8481 138.939 31.3678 138.939 29.4471V11.3475H142.667V29.7186ZM18.8333 18.4637C23.4202 18.4637 27.139 22.1815 27.139 26.7684C27.139 31.3551 23.4202 35.074 18.8333 35.074V29.2596C20.2094 29.2596 21.3246 28.1444 21.3246 26.7684C21.3245 25.3923 20.2094 24.2772 18.8333 24.2772V18.4637ZM58.556 31.6844H64.6908V35.074H54.8275V11.3475H58.556V31.6844ZM110.464 35.074H106.736V11.3475H110.464V35.074ZM118.746 11.3475C120.599 11.3475 121.99 11.8444 122.916 12.8387C123.843 13.8329 124.306 15.2911 124.306 17.2117V19.5496C124.306 21.4702 123.843 22.9284 122.916 23.9227C121.99 24.9168 120.599 25.4139 118.746 25.4139H116.985V35.074H113.256V11.3475H118.746ZM160.405 28.3289H160.472L162.846 11.3475H168.166V35.074H164.642V17.1102H164.575L161.862 35.074H158.743L156.033 17.1102H155.965V35.074H152.71V11.3475H158.033L160.405 28.3289ZM71.7357 14.3982C70.4478 14.3983 69.804 15.178 69.804 16.7371V29.6844C69.8041 31.2435 70.4478 32.0232 71.7357 32.0232C73.0237 32.0232 73.6673 31.2435 73.6673 29.6844V16.7371C73.6673 15.178 73.0237 14.3982 71.7357 14.3982ZM98.5462 14.3982C97.2585 14.3984 96.6146 15.1781 96.6146 16.7371V29.6844C96.6146 31.2434 97.2585 32.0231 98.5462 32.0232C99.8342 32.0232 100.479 31.2435 100.479 29.6844V16.7371C100.479 15.178 99.8342 14.3982 98.5462 14.3982ZM116.985 22.0242H118.746C119.357 22.0242 119.809 21.8551 120.103 21.5164C120.419 21.1774 120.577 20.6004 120.577 19.7869V16.9744C120.577 16.1611 120.419 15.5849 120.103 15.2459C119.809 14.907 119.357 14.7371 118.746 14.7371H116.985V22.0242ZM29.2025 10.158C29.7526 11.5368 31.1001 12.5115 32.6751 12.5115C34.2501 12.5115 35.5978 11.5368 36.1478 10.158H45.057C44.3685 16.3868 39.0874 21.2313 32.6751 21.2313C26.2629 21.2312 20.9819 16.3868 20.2933 10.158H29.2025Z" fill="var(--fill-0, #5B5E63)"/>
</g>
</svg>
