<svg preserveAspectRatio="none" width="100%" height="100%" overflow="visible" style="display: block;" viewBox="0 0 187 48" fill="none" xmlns="http://www.w3.org/2000/svg">
<g id="Img lib/Logo">
<path id="Vector" d="M149.883 6.14885C149.883 4.96585 150.842 4.00585 152.025 4.00585H153.454C154.023 4.00585 154.568 4.23163 154.97 4.63352C155.372 5.03541 155.597 5.58049 155.597 6.14885C155.597 6.71721 155.372 7.26229 154.97 7.66418C154.568 8.06607 154.023 8.29185 153.454 8.29185H152.025C151.744 8.29185 151.465 8.23641 151.205 8.1287C150.945 8.02099 150.709 7.86313 150.51 7.66412C150.311 7.46511 150.154 7.22886 150.046 6.96886C149.938 6.70887 149.883 6.43022 149.883 6.14885ZM89.8923 18.2898C89.8923 26.1778 83.4983 32.5728 75.6093 32.5728C67.7213 32.5728 61.3263 26.1778 61.3263 18.2898C61.3263 10.3998 67.7213 4.00685 75.6093 4.00685C83.4983 4.00685 89.8923 10.3998 89.8923 18.2898ZM58.5403 18.2188C59.3303 18.2188 59.9763 18.8588 59.8973 19.6448C59.6273 22.3347 58.5995 24.8926 56.9334 27.0215C55.2672 29.1503 53.0312 30.7626 50.485 31.671C47.9388 32.5793 45.1872 32.7465 42.5498 32.1529C39.9124 31.5594 37.4976 30.2296 35.5861 28.3181C33.6746 26.4065 32.3447 23.9917 31.7512 21.3543C31.1577 18.717 31.3248 15.9653 32.2332 13.4191C33.1415 10.873 34.7538 8.6369 36.8827 6.97076C39.0115 5.30461 41.5695 4.27682 44.2593 4.00685C45.0443 3.92685 45.6853 4.57485 45.6853 5.36285V16.7898C45.6853 17.5798 46.3253 18.2188 47.1143 18.2188H58.5403ZM109.889 35.4298C111.026 35.4298 112.116 35.8813 112.919 36.6849C113.723 37.4885 114.174 38.5784 114.174 39.7148C114.174 40.8513 113.723 41.9412 112.919 42.7448C112.116 43.5484 111.026 43.9998 109.889 43.9998H102.748C101.612 43.9998 100.522 43.5484 99.7183 42.7448C98.9148 41.9412 98.4633 40.8513 98.4633 39.7148C98.4633 38.5784 98.9148 37.4885 99.7183 36.6849C100.522 35.8813 101.612 35.4298 102.748 35.4298H109.889ZM105.604 32.5728C113.493 32.5728 119.888 26.1778 119.888 18.2898C119.892 15.8668 119.276 13.4831 118.099 11.3648L120.459 9.00485C120.731 8.73288 120.947 8.41003 121.094 8.05474C121.241 7.69945 121.317 7.31867 121.316 6.93414C121.316 6.54961 121.241 6.16887 121.093 5.81365C120.946 5.45843 120.73 5.13568 120.458 4.86385C120.186 4.59201 119.863 4.3764 119.508 4.22934C119.153 4.08227 118.772 4.00662 118.388 4.00672C118.003 4.00681 117.622 4.08264 117.267 4.22988C116.912 4.37712 116.589 4.59288 116.317 4.86485L114.257 6.92485C111.772 5.02675 108.73 4.00082 105.603 4.00585C97.7163 4.00685 91.3223 10.3998 91.3223 18.2898C91.3223 26.1778 97.7163 32.5728 105.604 32.5728ZM149.883 18.2898C149.883 26.1778 143.488 32.5728 135.599 32.5728C127.711 32.5728 121.316 26.1778 121.316 18.2898C121.316 10.3998 127.711 4.00685 135.599 4.00685C143.488 4.00685 149.883 10.4008 149.883 18.2898Z" fill="var(--fill-0, #5B5E63)"/>
</g>
</svg>
