<svg preserveAspectRatio="none" width="100%" height="100%" overflow="visible" style="display: block;" viewBox="0 0 187 48" fill="none" xmlns="http://www.w3.org/2000/svg">
<g id="Img lib/Logo" clip-path="url(#clip0_0_92)">
<path id="Vector" d="M63.0731 34.2648C63.4225 34.0664 63.8335 33.9957 64.2313 34.0656C64.6206 34.1342 64.9727 34.3335 65.2283 34.6281C65.6221 34.9581 65.9542 35.3527 66.2098 35.7941L66.2166 35.8058C67.0897 37.5004 67.9238 39.1948 68.744 40.9006L68.7459 40.9054C69.2444 41.9955 69.677 43.1099 70.0565 44.2228C70.2956 44.8931 70.3451 45.6144 70.2 46.3097C70.1742 46.6667 70.0408 47.0086 69.8172 47.2922C69.5891 47.5812 69.2776 47.7968 68.9227 47.9103C68.5677 48.0238 68.1858 48.0303 67.827 47.9289C67.4751 47.8294 67.1612 47.6296 66.9246 47.3566C66.3676 46.8599 65.9472 46.2329 65.7029 45.5353C65.6348 45.3392 65.5681 45.1435 65.5018 44.9484C65.3376 44.4654 65.1747 43.9857 64.991 43.5099C64.3421 41.8349 63.8553 40.6773 63.4676 39.7716C63.3953 39.6028 63.3266 39.442 63.2606 39.2882C62.973 38.6197 62.7395 38.077 62.5311 37.5285C62.3643 37.0808 62.2548 36.6147 62.2049 36.1408C62.1298 35.7811 62.1714 35.4067 62.325 35.0715C62.4806 34.7319 62.7426 34.4494 63.0731 34.2648ZM70.9158 30.7326C72.2222 30.4985 73.5655 30.5457 74.8514 30.8713C76.1406 31.1977 77.3412 31.7962 78.369 32.6242C79.124 33.2156 79.6735 34.021 79.9412 34.9299C80.2087 35.8378 80.1825 36.8048 79.866 37.6974C79.0576 40.2806 76.7582 41.3911 74.5975 42.217C74.6225 42.3014 74.6463 42.3845 74.6697 42.466C74.7401 42.7107 74.8073 42.9436 74.8924 43.1711C75.165 43.8469 75.2192 44.5881 75.0486 45.2951C75.0073 45.5554 74.8944 45.8001 74.7225 46.0031C74.5477 46.2094 74.3183 46.3647 74.0594 46.4523C73.8006 46.5399 73.5224 46.5566 73.2547 46.5002C72.9895 46.4441 72.7445 46.3192 72.5467 46.1379C72.1512 45.8081 71.8162 45.4147 71.5545 44.9757L71.5506 44.9699C71.3525 44.6165 71.1968 44.2411 71.0867 43.8527C70.1428 41.3886 69.2076 38.9158 68.2811 36.4347L68.2791 36.4318L68.2293 36.2941C67.9216 35.44 67.6126 34.5826 67.3748 33.7013C67.2447 33.2205 67.2649 32.7887 67.4236 32.4113C67.5817 32.0358 67.8662 31.74 68.2176 31.5099C68.9086 31.0579 69.904 30.83 70.9158 30.7326ZM109.536 28.3195C109.91 28.188 110.315 28.168 110.701 28.2609C111.087 28.3464 111.439 28.5433 111.71 28.8263C111.981 29.1102 112.159 29.4678 112.22 29.8517L112.222 29.8732V29.8947C112.222 30.0801 112.228 30.1673 112.284 30.256L112.314 30.3039L112.323 30.3586C112.404 30.8485 112.485 31.34 112.565 31.8293C112.789 33.1931 113.013 34.5549 113.255 35.9172C113.288 35.8769 113.32 35.8384 113.35 35.8009C113.644 35.4372 113.939 35.0677 114.235 34.6974C114.722 34.0882 115.213 33.4746 115.707 32.8732L115.71 32.8693C116.162 32.337 116.649 31.8342 117.169 31.3644C117.459 31.045 117.846 30.824 118.274 30.7345C118.705 30.6444 119.154 30.693 119.555 30.8713C119.941 31.025 120.267 31.2934 120.487 31.6388C120.707 31.9832 120.81 32.3867 120.782 32.7912C120.786 34.0711 120.725 35.3503 120.598 36.6242V36.6281C120.467 37.7918 120.311 38.9783 120.155 40.1652C120.02 41.1949 119.885 42.2252 119.765 43.2414C119.686 43.961 119.397 44.6437 118.932 45.2072C118.733 45.5054 118.447 45.7391 118.111 45.8791C117.771 46.0211 117.394 46.06 117.031 45.9904C116.668 45.9206 116.334 45.7459 116.073 45.4884C115.815 45.233 115.641 44.9077 115.572 44.5549C115.414 43.9279 115.413 43.2728 115.571 42.6457C115.812 41.2304 116.039 39.8147 116.267 38.3879L116.434 37.3507L113.617 39.6701L113.255 39.9357C113.071 40.0719 112.858 40.1678 112.634 40.216C112.409 40.2642 112.176 40.2646 111.951 40.216C111.726 40.1672 111.514 40.0706 111.331 39.9338C111.15 39.7986 111 39.6273 110.893 39.4308C110.327 38.5034 109.914 37.4947 109.67 36.4416C109.653 36.389 109.636 36.3362 109.62 36.2824C109.387 36.7186 109.182 37.1193 108.971 37.5666C108.425 38.7229 107.876 39.8841 107.303 41.0314C107.108 41.4165 106.87 41.7802 106.593 42.1134C106.376 42.3839 106.073 42.5762 105.732 42.6603C105.391 42.7445 105.029 42.7155 104.707 42.5773C104.402 42.4485 104.147 42.2294 103.976 41.9513C103.809 41.6788 103.731 41.3628 103.754 41.0461C103.735 40.6921 103.788 40.3374 103.912 40.0041C103.981 39.7939 104.05 39.5831 104.118 39.3722C104.46 38.3158 104.803 37.2558 105.219 36.2502L105.221 36.2453C105.898 34.6943 106.596 33.1558 107.289 31.6271L107.293 31.6164C107.57 31.0042 107.848 30.3934 108.122 29.7843C108.243 29.5016 108.405 29.2368 108.601 28.9982C108.838 28.6873 109.163 28.4507 109.536 28.3195ZM83.4246 28.0881C84.956 27.3965 86.8533 27.2776 88.3377 27.7638C88.7115 27.8703 89.0363 28.1005 89.2557 28.4152C89.4735 28.7279 89.5734 29.105 89.5399 29.4816C89.5376 29.7261 89.4766 29.9667 89.3611 30.1838C89.2436 30.4046 89.0734 30.5944 88.8651 30.7375C88.6565 30.8805 88.4154 30.9732 88.1629 31.006C87.9104 31.039 87.6534 31.0116 87.4139 30.9269L87.3953 30.9201L87.3777 30.9113C87.2552 30.8487 87.1246 30.8014 86.9901 30.7707L86.9822 30.7687C85.938 30.4975 84.9524 30.9471 84.5926 31.4992C84.4212 31.7623 84.4001 32.0281 84.5428 32.2697C84.6958 32.5285 85.0714 32.8195 85.8309 33.0265C86.0398 33.0826 86.2543 33.1366 86.4715 33.1916C87.0721 33.3436 87.6961 33.502 88.2996 33.7209L88.3026 33.7218C91.0868 34.7578 92.1233 36.9032 91.7684 38.9211C91.4171 40.9165 89.7124 42.7329 87.1492 43.1613C86.2167 43.3633 85.2461 43.3239 84.3338 43.047C83.4191 42.7692 82.5946 42.2621 81.9422 41.5763L81.9246 41.5578C81.7188 41.2994 81.5798 40.996 81.5184 40.674C81.4619 40.3833 81.4919 40.0826 81.6043 39.8078C81.716 39.5346 81.9054 39.2984 82.1492 39.1261C82.4067 38.931 82.717 38.8137 83.0418 38.7892C83.3657 38.7649 83.69 38.8341 83.9744 38.9875C84.2584 39.1216 84.5225 39.2927 84.7596 39.4963L84.7645 39.5002C85.184 39.8751 85.6919 39.9725 86.1785 39.882C86.6723 39.7901 87.1367 39.5042 87.4354 39.1252C87.7318 38.7487 87.8509 38.3015 87.7098 37.8674C87.5675 37.4298 87.1397 36.9393 86.2 36.5295C85.9543 36.4275 85.6994 36.3449 85.4344 36.2648C85.363 36.2432 85.2901 36.2222 85.2166 36.2004C85.0208 36.1422 84.8195 36.0818 84.6219 36.0158C84.4857 35.9704 84.3504 35.9276 84.2166 35.8849C83.8512 35.7686 83.495 35.6552 83.1522 35.5031C82.4057 35.2546 81.7607 34.777 81.3133 34.1418C80.8641 33.504 80.638 32.7416 80.6688 31.9679C80.6712 30.0826 81.8851 28.7834 83.4246 28.0881ZM101.885 27.6916C102.214 27.6784 102.543 27.7453 102.84 27.8869C103.136 28.0285 103.393 28.24 103.585 28.5021C103.895 28.9168 104.068 29.4152 104.081 29.9289C104.106 30.441 104.135 30.9564 104.164 31.4728C104.222 32.5258 104.28 33.5846 104.315 34.6349C104.373 36.0735 104.094 37.5063 103.5 38.8234C103.075 39.8574 102.339 40.7409 101.389 41.3576C100.439 41.9751 99.3187 42.2953 98.1776 42.2765C97.0364 42.2577 95.9277 41.9007 94.9988 41.2521C94.0719 40.6047 93.3672 39.6974 92.9783 38.6506C92.6336 37.8392 92.4461 36.9722 92.4256 36.0939C92.3156 34.4687 92.395 32.8362 92.6629 31.2287L92.6639 31.2257C92.681 31.1296 92.6983 31.0307 92.7156 30.9299C92.7657 30.6367 92.818 30.3286 92.8836 30.0353C92.9719 29.6402 93.0886 29.2456 93.2703 28.9123C93.4536 28.5761 93.7128 28.2849 94.0906 28.1281C94.4684 27.9714 94.9217 27.9667 95.4578 28.1183C95.7543 28.2042 95.9903 28.3302 96.1649 28.5011C96.3411 28.6738 96.4407 28.8769 96.493 29.09C96.5439 29.2984 96.5504 29.5185 96.5428 29.7326C96.5376 29.8782 96.5248 30.0344 96.5125 30.1877C96.5069 30.256 96.5017 30.3239 96.4969 30.3898L96.1727 35.4367C96.2006 36.1328 96.31 36.8237 96.4998 37.4953C96.5887 37.8139 96.7675 38.1028 97.0145 38.3283C97.2613 38.5536 97.5671 38.7076 97.8983 38.7726C98.2296 38.8376 98.5736 38.8113 98.8904 38.6965C99.2072 38.5816 99.4845 38.3825 99.6922 38.1222L99.7029 38.1095C100.342 37.3972 100.671 36.4695 100.621 35.5236L100.62 35.5109C100.613 34.6351 100.537 33.7608 100.39 32.8966L100.388 32.883C100.323 32.3319 100.226 31.7914 100.126 31.2384C100.065 30.9044 100.004 30.5653 99.949 30.217C99.8931 29.9459 99.8916 29.6664 99.9451 29.3947C99.9987 29.1228 100.106 28.8636 100.262 28.632C100.431 28.3571 100.667 28.1271 100.949 27.9631C101.233 27.7979 101.554 27.7049 101.885 27.6916ZM75.4686 34.8175C74.2619 34.0784 72.8224 33.7899 71.4158 34.006C71.3729 34.0164 71.3295 34.0282 71.2869 34.0402C71.9736 35.6363 72.6596 37.2181 73.3348 38.7384C74.2609 38.6216 75.2865 37.9952 75.8484 37.2121C76.1457 36.7976 76.2941 36.3659 76.2557 35.9679C76.2183 35.5814 76.0002 35.1791 75.4686 34.8175ZM56.2606 14.4806C56.674 14.2603 57.1596 14.2063 57.6131 14.3302C58.0664 14.4542 58.4526 14.746 58.6893 15.1437C59.4168 16.089 60.0605 17.0937 60.6141 18.1457C62.0189 20.6893 63.3589 23.233 64.7117 25.7004C64.7905 25.8367 64.8779 25.9686 64.9725 26.0949C65.9906 25.6763 66.9483 25.129 67.8211 24.467C68.2229 24.1745 68.6597 23.9303 69.1219 23.7414C69.6054 23.6063 70.1213 23.6291 70.5906 23.8058C71.0597 23.9826 71.4576 24.3037 71.7234 24.7209C71.9614 25.1372 72.0547 25.6184 71.9891 26.091C71.9234 26.5633 71.702 27.0019 71.3592 27.341C71.0933 27.6159 70.7915 27.856 70.4617 28.0539C68.9919 28.9823 67.509 29.8598 66.0262 30.7882C65.7227 31.0206 65.4006 31.2289 65.0633 31.4113C64.5504 31.6614 63.9642 31.7284 63.4061 31.6007C62.848 31.4732 62.3528 31.1586 62.0067 30.7121C61.748 30.3958 61.5294 30.0496 61.3563 29.6818C59.9514 26.7947 58.4943 23.9196 57.1414 20.9816C56.5171 19.71 56.0097 18.2476 55.5154 16.8361C55.3016 16.4259 55.26 15.9498 55.3992 15.5099C55.5385 15.0703 55.8473 14.701 56.2606 14.4806ZM120.255 22.8605C120.731 22.9229 121.161 23.168 121.453 23.5412C121.744 23.9145 121.873 24.3862 121.809 24.8517C121.745 25.3171 121.495 25.7386 121.113 26.0236C120.731 26.3085 120.249 26.4336 119.773 26.3713C119.297 26.3089 118.866 26.0639 118.574 25.6906C118.283 25.3175 118.155 24.8463 118.219 24.381C118.282 23.9155 118.533 23.4932 118.915 23.2082C119.297 22.9233 119.779 22.7981 120.255 22.8605ZM76.077 7.7443C77.4806 7.54763 78.9124 7.79029 80.1668 8.43669C81.4212 9.08315 82.4348 10.1006 83.0623 11.3439C85.3517 15.4139 85.0262 20.6031 82.3465 23.5793C79.1336 27.2549 73.7485 26.3262 71.0428 21.5949C69.1176 18.2372 68.7791 12.6921 72.9676 9.1945C73.862 8.46225 74.9321 7.96316 76.077 7.7443ZM108.637 7.24821C109.721 6.8247 110.898 6.67663 112.057 6.81657C113.45 7.06593 114.728 7.73646 115.711 8.73356C116.693 9.73068 117.331 11.0039 117.534 12.3742C118.392 16.9144 116.441 21.76 112.942 23.7824C108.715 26.3262 103.901 23.7823 102.847 18.4406C102.08 14.6251 103.537 9.28311 108.637 7.24821ZM91.8553 6.12907C92.7436 5.65034 93.7834 5.5149 94.7693 5.74821C94.9928 5.80871 95.196 5.92609 95.3572 6.08903C95.5186 6.25214 95.6329 6.45535 95.6873 6.67595C95.7416 6.89634 95.7343 7.12702 95.6668 7.34391C95.5992 7.56099 95.4734 7.75676 95.3026 7.91032C94.9777 8.19777 94.6247 8.45305 94.2488 8.67302C93.0924 9.39305 92.086 10.3209 91.283 11.4074C90.7567 12.1104 90.3945 12.918 90.2215 13.7726C90.0484 14.6274 90.0682 15.5094 90.2811 16.3556C90.576 17.5092 91.2309 18.5446 92.1541 19.3185C95.0158 21.8622 98.7369 19.4077 98.0867 15.9357C97.1373 16.1647 96.3043 16.4061 95.4588 16.6095C95.1299 16.6787 94.7895 16.6825 94.4588 16.6213C94.1284 16.56 93.8132 16.4349 93.533 16.2531C93.2879 16.1159 93.0766 15.9277 92.9149 15.7013C92.7531 15.4748 92.6447 15.2159 92.5975 14.9435C92.5501 14.6711 92.5652 14.3912 92.6414 14.1252C92.7178 13.8592 92.8537 13.6131 93.0389 13.4045C93.3617 12.9852 93.8203 12.6845 94.3397 12.5519C95.696 12.167 97.0927 11.9327 98.5027 11.8527C98.8124 11.8175 99.1263 11.843 99.4256 11.9279C99.7252 12.013 100.004 12.1558 100.247 12.3478C100.489 12.5397 100.689 12.7773 100.837 13.0461C100.984 13.3149 101.075 13.6097 101.104 13.9132C101.511 15.4045 101.555 16.9685 101.234 18.4797C100.063 23.3633 96.0304 25.042 91.5037 23.4777C90.2333 23.0595 89.1195 22.28 88.3045 21.2394C87.2174 19.986 86.4459 18.5005 86.0535 16.9025C85.7356 15.4794 85.7703 14.0021 86.1551 12.5949C86.5398 11.1878 87.2638 9.89075 88.2654 8.81266C89.216 7.64104 90.4496 6.71858 91.8553 6.12907ZM77.3318 12.0949C76.6992 12.1343 76.1 12.386 75.6346 12.8068C73.7745 14.4221 73.3844 18.2499 74.7371 20.5265C74.9096 20.8978 75.1628 21.2278 75.4793 21.4933C75.7958 21.7588 76.1678 21.9535 76.5692 22.0636C76.9706 22.1739 77.392 22.1976 77.8035 22.132C78.215 22.0663 78.6071 21.9129 78.952 21.6838C79.96 20.9194 80.6999 19.8672 81.0682 18.673C81.4366 17.4786 81.4148 16.2016 81.0067 15.0197L81.0457 15.007C80.7044 14.0069 80.0193 13.1526 79.1072 12.59C78.5912 12.2305 77.9642 12.0555 77.3318 12.0949ZM121.712 6.89177C122.136 6.74049 122.599 6.72764 123.032 6.85466C123.472 6.96228 123.86 7.21437 124.133 7.56852C124.405 7.92261 124.544 8.35738 124.528 8.79997C124.471 9.51019 124.362 10.2161 124.203 10.9113C123.774 13.2643 123.356 15.6179 122.901 17.9455C122.693 18.8738 122.42 19.7643 122.121 20.7052C122.017 20.9992 121.843 21.265 121.614 21.4806C121.472 21.6429 121.29 21.7678 121.085 21.8429C120.88 21.9182 120.659 21.9417 120.442 21.9113C120.226 21.8809 120.02 21.7975 119.846 21.6691C119.671 21.5405 119.531 21.3708 119.441 21.1759C119.287 20.8263 119.203 20.4503 119.194 20.0695C119.194 18.4925 119.195 16.9024 119.299 15.3127C119.475 13.0438 119.823 10.7903 120.339 8.57145C120.399 8.27418 120.515 7.98948 120.678 7.73161V7.69352C120.925 7.32433 121.288 7.043 121.712 6.89177ZM111.81 11.3224C111.198 11.1671 110.55 11.224 109.976 11.4836C107.687 12.4501 106.074 15.9612 106.659 18.5431C106.704 18.9482 106.838 19.3388 107.054 19.6877C107.269 20.0366 107.559 20.3359 107.905 20.5636C108.251 20.7912 108.643 20.942 109.055 21.006C109.466 21.0699 109.887 21.0453 110.288 20.9338C111.498 20.5204 112.546 19.7476 113.285 18.7238C114.024 17.7 114.419 16.476 114.412 15.2228C114.411 14.1664 114.028 13.1442 113.332 12.3361C112.96 11.8364 112.422 11.4779 111.81 11.3224ZM127.732 5.28434C127.832 5.28436 127.946 5.29914 128.032 5.34098C128.261 5.45292 128.261 5.69097 128.047 5.8029C127.975 5.84471 127.889 5.85827 127.789 5.87223C127.66 5.87226 127.517 5.88658 127.36 5.90055V6.01188C127.374 6.55758 127.403 7.11788 127.546 7.64958C127.574 7.77547 127.575 7.90162 127.517 8.02751C127.403 8.27909 127.116 8.32119 126.93 8.11149C126.816 7.99955 126.787 7.85883 126.759 7.71891C126.716 7.15945 126.716 6.614 126.788 6.06852C126.802 6.02658 126.802 5.9565 126.802 5.90055C126.616 5.88655 126.429 5.85888 126.258 5.84489C126.186 5.84484 126.114 5.83015 126.057 5.78825C125.958 5.74634 125.915 5.69057 125.9 5.59294C125.9 5.49512 125.957 5.42496 126.057 5.38298C126.115 5.341 126.201 5.34033 126.272 5.32634C126.401 5.31235 126.53 5.29899 126.659 5.29899C127.017 5.29899 127.375 5.29834 127.732 5.28434ZM129.02 5.34098C129.177 5.34108 129.277 5.41069 129.363 5.5363C129.377 5.56423 129.392 5.59233 129.421 5.62028C129.607 5.95608 129.779 6.30661 129.965 6.65641C129.967 6.65853 129.98 6.67273 129.993 6.69841C130.022 6.65644 130.036 6.61374 130.051 6.55778C130.165 6.34807 130.25 6.12423 130.35 5.90055C130.408 5.77474 130.48 5.66276 130.565 5.55095C130.637 5.4251 130.766 5.34052 130.937 5.36833C131.109 5.38231 131.21 5.48046 131.253 5.62028C131.324 5.84415 131.396 6.08229 131.453 6.33415C131.539 6.73987 131.582 7.15955 131.668 7.57927C131.696 7.71903 131.682 7.84508 131.625 7.97087C131.496 8.22271 131.209 8.25072 131.023 8.01286C130.938 7.91499 130.923 7.80272 130.909 7.67692C130.866 7.31343 130.809 6.9499 130.752 6.57243C130.752 6.57243 130.737 6.55808 130.737 6.54411C130.709 6.57205 130.694 6.60015 130.666 6.62809C130.537 6.82399 130.38 7.0201 130.251 7.21598C130.222 7.24379 130.208 7.2576 130.18 7.28532C130.051 7.41119 129.922 7.42538 129.764 7.31364C129.607 7.17379 129.478 7.00588 129.349 6.83805C129.321 6.7962 129.292 6.75416 129.263 6.69841C129.221 6.85211 129.206 6.9639 129.178 7.10368C129.135 7.34154 129.091 7.57937 129.034 7.83122C129.02 7.90111 129.005 7.97101 128.963 8.05485C128.92 8.16676 128.82 8.20944 128.677 8.19548C128.562 8.18149 128.476 8.11111 128.447 7.99919C128.419 7.94333 128.405 7.8734 128.419 7.81755C128.419 7.56569 128.433 7.31355 128.462 7.06169C128.519 6.61407 128.591 6.16653 128.648 5.71891C128.663 5.66294 128.663 5.62059 128.691 5.56462C128.763 5.43877 128.877 5.35496 129.02 5.34098ZM99.7371 5.44548C101.143 5.52781 104.828 7.03712 105.148 7.38981C105.368 7.75395 105.106 8.1603 104.784 8.09294C103.419 7.77144 99.7334 6.61818 98.0526 7.02458C97.8739 7.07963 97.742 7.00859 97.6912 6.79216C97.6453 6.63293 97.664 6.44088 97.7635 6.17497C98.2008 5.27637 99.1861 5.415 99.7371 5.44548ZM103.32 0.16325C103.535 0.00465673 103.76 -0.0501672 103.874 0.0528984C105.55 1.45463 106.439 3.67419 106.989 5.70622C107.01 5.75356 107.012 5.82187 106.995 5.89274C106.988 5.95324 106.943 6.01713 106.871 6.06657C106.794 6.12113 106.728 6.1378 106.697 6.09098C105.962 5.11391 101.766 1.31166 103.32 0.16325ZM110.746 1.77067C111.033 1.50723 111.508 0.991055 112.169 1.28727C112.348 1.38837 112.448 1.48519 112.498 1.59294C112.571 1.73405 112.533 1.83214 112.409 1.882C111.298 2.41218 109.819 4.69427 109.222 5.48161C109.078 5.66268 108.744 5.55762 108.693 5.25993C108.704 4.92319 110.014 2.44537 110.746 1.77067Z" fill="var(--fill-0, #5B5E63)"/>
</g>
<defs>
<clipPath id="clip0_0_92">
<rect width="187" height="48" fill="white"/>
</clipPath>
</defs>
</svg>
