<svg preserveAspectRatio="none" width="100%" height="100%" overflow="visible" style="display: block;" viewBox="0 0 187 48" fill="none" xmlns="http://www.w3.org/2000/svg">
<g id="Img lib/Logo">
<path id="Vector" d="M36.8014 6.43904C46.4999 6.43904 54.3627 14.3011 54.3629 23.9996C54.3629 33.6982 46.5 41.5611 36.8014 41.5611C27.1029 41.5609 19.2408 33.6981 19.2408 23.9996C19.241 14.3013 27.103 6.43928 36.8014 6.43904ZM91.7115 19.9185C93.1443 19.9186 94.1136 20.4881 94.7457 21.3941H94.7877V20.2349H98.0748V29.9703C98.0748 31.5929 97.5062 32.7736 96.6422 33.5533C95.6939 34.3961 94.2818 34.7545 92.6803 34.7545C89.7091 34.7544 87.7489 33.5317 87.4117 31.2769H90.7418C90.9314 31.8459 91.5004 32.3306 92.6383 32.3306C94.0921 32.3306 94.7036 31.5724 94.7037 30.2662V29.191H94.6187C93.9866 29.9073 93.1652 30.4341 91.859 30.4342C89.4356 30.4342 87.1803 28.6215 87.1803 25.3131C87.1804 22.1523 89.0354 19.9185 91.7115 19.9185ZM123.154 19.9185C126.02 19.9185 127.769 22.3843 127.769 25.6295C127.769 29.1276 125.894 31.3619 123.07 31.3619C121.679 31.3619 120.689 30.8138 120.014 29.9078H119.972V34.5855H116.538V20.2349H119.825V21.5416H119.888C120.626 20.5723 121.679 19.9187 123.154 19.9185ZM42.2799 14.6197C42.5465 13.6725 41.6272 13.1124 40.7877 13.7105L29.0689 22.0592C28.1586 22.7077 28.3017 23.9994 29.2838 23.9996H32.3697V23.9761H38.3844L33.484 25.7056L31.3238 33.3804C31.0572 34.3276 31.9755 34.8874 32.815 34.2896L44.5348 25.941C45.4451 25.2924 45.3019 23.9999 44.3199 23.9996H39.6402L42.2799 14.6197ZM80.9088 19.94C84.3859 19.94 86.6617 22.4057 86.6617 25.651C86.6616 28.8961 84.3858 31.3619 80.9088 31.3619C77.4529 31.3618 75.1355 28.8961 75.1353 25.651C75.1353 22.4057 77.4529 19.9401 80.9088 19.94ZM104.856 19.94C108.333 19.9401 110.609 22.4058 110.609 25.651C110.609 28.896 108.333 31.3618 104.856 31.3619C101.4 31.3619 99.0817 28.8961 99.0816 25.651C99.0816 22.4057 101.4 19.94 104.856 19.94ZM133.067 19.9185C136.122 19.9186 137.766 21.2464 137.934 23.3746H134.774C134.648 22.4053 133.994 22.1099 133.046 22.1099C132.203 22.1099 131.549 22.4268 131.549 23.1011C131.55 23.8595 132.772 23.9645 134.141 24.2174C136.038 24.5334 138.272 25.0185 138.272 27.7789C138.272 30.139 136.186 31.3618 133.362 31.3619C130.201 31.3619 128.22 29.9072 128.115 27.526H131.36C131.486 28.6006 132.203 29.1275 133.34 29.1275C134.373 29.1275 135.026 28.7485 135.026 28.0533C135.026 27.0839 133.72 26.978 132.287 26.7252C130.411 26.4091 128.41 25.9033 128.41 23.3746C128.41 21.0988 130.517 19.9185 133.067 19.9185ZM142.558 26.5992C142.558 27.7792 143.085 28.4322 144.181 28.4322C145.361 28.4321 146.078 27.5474 146.078 26.2623V20.2349H149.512V31.024H146.225V29.6968H146.162C145.382 30.7503 144.434 31.3403 142.938 31.3404C140.452 31.3404 139.144 29.7181 139.144 27.316V20.2349H142.558V26.5992ZM67.9059 27.8629H74.6705V31.024H64.1764V15.9566H67.9059V27.8629ZM115.046 31.024H111.612V20.2349H115.046V31.024ZM164.092 19.9185C166.537 19.9185 167.759 21.584 167.759 24.0074V31.024H164.324V24.6177C164.324 23.459 163.84 22.7848 162.807 22.7847C161.711 22.7847 161.1 23.6908 161.1 24.9761V31.024H157.666V24.6177C157.666 23.459 157.18 22.7848 156.148 22.7847C155.073 22.7847 154.441 23.6908 154.441 24.9761V31.024H151.006V20.2349H154.294V21.773H154.357C155.031 20.6564 156.064 19.9186 157.623 19.9185C159.034 19.9185 160.11 20.6561 160.658 21.815H160.7C161.543 20.5087 162.702 19.9186 164.092 19.9185ZM80.8883 22.3629C79.3921 22.3629 78.6119 23.6911 78.6119 25.651C78.612 27.6106 79.3921 28.9166 80.8883 28.9166C82.3841 28.9163 83.1851 27.6104 83.1852 25.651C83.1852 23.6913 82.3842 22.3631 80.8883 22.3629ZM104.835 22.3629C103.338 22.3629 102.559 23.6912 102.559 25.651C102.559 27.6106 103.339 28.9165 104.835 28.9166C106.331 28.9166 107.131 27.6106 107.131 25.651C107.131 23.6911 106.331 22.3629 104.835 22.3629ZM122.122 22.6793C120.626 22.6793 119.867 24.0074 119.867 25.7564C119.867 27.5053 120.71 28.7066 122.185 28.7066C123.491 28.7065 124.292 27.5895 124.293 25.7564C124.293 23.902 123.597 22.6793 122.122 22.6793ZM92.6598 22.5103C91.3743 22.5103 90.5309 23.5649 90.5309 25.2086C90.531 26.831 91.3744 27.8843 92.6598 27.8843C94.1557 27.8842 94.8512 26.7042 94.8512 25.1871C94.8512 23.7332 94.0925 22.5105 92.6598 22.5103ZM115.046 18.7388H111.612V15.9566H115.046V18.7388Z" fill="var(--fill-0, #5B5E63)"/>
</g>
</svg>
