<svg preserveAspectRatio="none" width="100%" height="100%" overflow="visible" style="display: block;" viewBox="0 0 31.3333 26" fill="none" xmlns="http://www.w3.org/2000/svg">
<g id="Vector 1">
<path d="M22.6428 2.19045e-07H7.35719C6.27343 -8.65494e-06 5.39925 -1.58151e-05 4.69138 0.0578194C3.96253 0.117369 3.32234 0.243181 2.73005 0.544969C1.78924 1.02434 1.02434 1.78924 0.544969 2.73005C0.243181 3.32234 0.117369 3.96253 0.0578192 4.69138C0.00648007 5.31974 0.000719316 6.07914 7.92145e-05 6.99986C-4.87705e-05 7.18396 0.149237 7.33333 0.333332 7.33333H29.6667C29.8508 7.33333 30 7.18396 29.9999 6.99986C29.9993 6.07913 29.9935 5.31975 29.9422 4.69138C29.8826 3.96253 29.7568 3.32234 29.455 2.73005C28.9757 1.78924 28.2108 1.02434 27.27 0.544969C26.6777 0.243181 26.0375 0.117369 25.3086 0.0578194C24.6008 -1.58151e-05 23.7266 -8.65494e-06 22.6428 2.19045e-07Z" fill="var(--fill-0, #1A1A1A)"/>
<path fill-rule="evenodd" clip-rule="evenodd" d="M30 9.66667C30 9.48257 29.8508 9.33333 29.6667 9.33333H0.333334C0.14924 9.33333 2.24501e-07 9.48257 2.24501e-07 9.66667V15.9762C-8.79642e-06 17.0599 -1.60734e-05 17.9341 0.0578192 18.642C0.117369 19.3708 0.243181 20.011 0.544969 20.6033C1.02434 21.5441 1.78924 22.309 2.73005 22.7884C3.32234 23.0902 3.96253 23.216 4.69138 23.2755C5.39925 23.3334 6.27339 23.3333 7.35717 23.3333H15.5333C16.0856 23.3333 16.5333 22.8856 16.5333 22.3333C16.5333 17.2891 20.6225 13.2 25.6667 13.2C26.721 13.2 27.7315 13.3782 28.6712 13.7054C28.977 13.8119 29.3154 13.7637 29.5793 13.5761C29.8432 13.3886 30 13.0848 30 12.761V9.66667ZM11.6667 15.3333C12.219 15.3333 12.6667 15.781 12.6667 16.3333C12.6667 16.8856 12.219 17.3333 11.6667 17.3333H5.66667C5.11438 17.3333 4.66667 16.8856 4.66667 16.3333C4.66667 15.781 5.11438 15.3333 5.66667 15.3333H11.6667Z" fill="var(--fill-0, #1A1A1A)"/>
<path d="M31.0404 18.2929C31.431 18.6834 31.431 19.3166 31.0404 19.7071L25.0404 25.7071C24.6499 26.0976 24.0168 26.0976 23.6262 25.7071L20.2929 22.3738C19.9024 21.9832 19.9024 21.3501 20.2929 20.9596C20.6834 20.569 21.3166 20.569 21.7071 20.9596L24.3333 23.5858L29.6262 18.2929C30.0168 17.9024 30.6499 17.9024 31.0404 18.2929Z" fill="var(--fill-0, #1A1A1A)"/>
</g>
</svg>
