<svg preserveAspectRatio="none" width="100%" height="100%" overflow="visible" style="display: block;" viewBox="0 0 44 33.9512" fill="none" xmlns="http://www.w3.org/2000/svg">
<path id="Subtract" d="M30.3018 0C34.4527 0 37.7741 0.931923 40.2646 2.7959C42.755 4.65987 43.9999 7.85537 44 12.3818C44 17.4412 41.0945 22.368 35.2832 27.1611C29.7486 31.6879 23.6601 33.9512 17.0186 33.9512C12.5911 33.9511 8.57878 32.886 4.98145 30.7559C1.66078 28.6257 9.50663e-05 25.2971 0 20.7705C0 15.1786 3.32051 10.3849 9.96191 6.39062C16.8801 2.13013 23.6603 2.66723e-05 30.3018 0ZM17.8838 10.1504C17.5834 10.1504 17.228 10.4797 16.8184 11.1387C16.4087 11.7977 16.0132 12.6355 15.6309 13.6514C15.2485 14.6672 14.9206 15.6969 14.6475 16.7402C14.4017 17.7836 14.2783 18.7037 14.2783 19.5C14.2783 20.5984 14.5514 21.5736 15.0977 22.4248C15.6712 23.2485 16.423 23.6602 17.3516 23.6602C18.0341 23.6601 18.6894 23.4266 19.3174 22.96C19.9455 22.4932 20.5466 21.8753 21.1201 21.1064C21.6936 20.3101 22.2262 19.4589 22.7178 18.5527C22.6358 18.9097 22.5673 19.2671 22.5127 19.624C22.4581 19.9534 22.4307 20.2829 22.4307 20.6123C22.4307 21.1613 22.513 21.6691 22.6768 22.1357C22.8679 22.6025 23.1685 22.9735 23.5781 23.248C24.0151 23.5226 24.5887 23.6602 25.2988 23.6602C26.2819 23.6601 27.2923 23.3443 28.3301 22.7129C29.3679 22.0813 30.3517 21.2029 31.2803 20.0771C32.2088 18.9239 32.9597 17.6057 33.5332 16.123L33.001 15.752C32.3455 17.1524 31.5937 18.361 30.7471 19.377C29.9005 20.3653 29.0673 21.1199 28.248 21.6416C27.4288 22.1632 26.7327 22.4248 26.1592 22.4248C25.6676 22.4248 25.3122 22.2737 25.0938 21.9717C24.9026 21.6697 24.8067 21.2714 24.8066 20.7773C24.8066 20.0909 24.9437 19.2938 25.2168 18.3877C25.4899 17.4817 25.8042 16.5895 26.1592 15.7109C26.5415 14.8048 26.8695 14.0494 27.1426 13.4453C27.4156 12.8139 27.5518 12.4428 27.5518 12.333C27.5516 12.0861 27.4154 11.8941 27.1426 11.7568C26.8968 11.6196 26.6099 11.5091 26.2822 11.4268C25.9821 11.3445 25.7498 11.2902 25.5859 11.2627C25.2856 11.8667 24.9027 12.6214 24.4385 13.5273C24.0015 14.4335 23.5238 15.3816 23.0049 16.3701C22.486 17.3586 21.9397 18.2787 21.3662 19.1299C20.82 19.981 20.2737 20.6813 19.7275 21.2305C19.1815 21.752 18.6487 22.0126 18.1299 22.0127C17.693 22.0127 17.365 21.8343 17.1465 21.4775C16.928 21.1206 16.791 20.7216 16.7363 20.2822C16.6817 19.8157 16.6543 19.4725 16.6543 19.2529C16.6543 18.3193 16.8188 17.3034 17.1465 16.2051C17.4742 15.1069 17.8561 14.0772 18.293 13.1162C18.7298 12.1554 19.099 11.4414 19.3994 10.9746C19.1809 10.7275 18.9078 10.5348 18.5801 10.3975C18.2524 10.2328 18.0203 10.1504 17.8838 10.1504Z" fill="var(--fill-0, #007AFF)"/>
</svg>
